<?xml version="1.0" encoding="utf-8"?>
<!-- Generator: Adobe Illustrator 27.0.1, SVG Export Plug-In . SVG Version: 6.00 Build 0)  -->
<svg version="1.1" id="Layer_1" xmlns="http://www.w3.org/2000/svg" xmlns:xlink="http://www.w3.org/1999/xlink" x="0px" y="0px"
	 viewBox="0 0 1633 1755" style="enable-background:new 0 0 1633 1755;" xml:space="preserve">
<style type="text/css">
	.st0{fill:#FFFFFF;}
</style>
<g>
	<path class="st0" d="M816.3,77.5c17.1-1.4,16.6,15.7,34.2,32.1c-13.7,6.8-29.4,7.1-44.4,7.1c-8.5-0.1-16.3-3.7-24.1-6.6
		C795.9,97,793.7,79.6,816.3,77.5z"/>
	<path class="st0" d="M774.4,117.6c3.3,4.3,8.4,6.8,13.4,8.5c-23.4,32.6-9.4,122.4,2.5,142.7c-3.4-0.9-7.5,0.1-10.1-2.6
		c-13.4-11.9-59.6-35.5-47.2-88.3C740.1,147,762.2,129.3,774.4,117.6z"/>
	<path class="st0" d="M838.1,126.7c7.5-1.4,14.8-4.1,21.3-8.3c24.5,22.8,47.8,49.2,41.6,86.7c-5.3,32.8-29.7,45.8-44.7,58.1
		c-4.3,3.1-0.5,3.3-15.9,4C854.8,224.6,860.3,166.1,838.1,126.7z"/>
	<path class="st0" d="M799.9,128.7c9.4,0.1,19,0.2,28.4-0.7c16,38.1,15.1,83.9,4.6,123c-1.4,5.7-3.6,11.3-5.1,17
		c-7.7,0.4-15.3,1.1-23,1.1C779.5,233.2,783,144,799.9,128.7z"/>
	<path class="st0" d="M841.1,279.1c-10.3,16.6-10.7,50.9-2.3,66.3c-21.1,8.7-39.2,5.4-45,0.9c9.4-16.7,7.9-51-1.3-66.3
		C802.9,281,834.6,279.8,841.1,279.1z"/>
	<path class="st0" d="M967.9,303.3c21.1-4,40.1,23.9,50.6,42c10.1,17.8,13.7,38.2,22.1,56.7c-60.2,4.1-114.9,49.8-141.3,100.5
		c-13.4-18.1-36.8-26.7-50.7-17.2c-20.1,13.2-8.2,48,18.2,40.9c12.9-3.2,14.8-18.3,5.8-23.2c-4.1-1.8-13.4,1.9-9.8,10.2
		c-21.1,1.1-11.7-32.4,16.3-13.5c6.1,4.3,10,10.8,13.6,17.2c-0.4,1-19.7,50.7-19.7,50.8c-31.1-28.2-44.4-73.4-44.9-115.4
		c-0.4-40.7,6-41.4,21.3-60.4c10.1-12.4,10.8-24.7,7.9-40.1c16.6-4,30.4-14.6,44.6-23.6c34.3-4.3,45.7,58.1,17,72.5
		c-26.3,13.8-47.3-28.1-33.2-34.8c4.3-2,9.4-0.7,13.4,1.6c-7-0.1-8.7,9.8-4.8,14.3c3.5,4.7,10.8,4.3,15,0.8
		c11.3-7.6,2.5-29.4-12.8-32.2c-17.9-3.8-37.7,14.7-24.1,41.4c-7.5,4-12.9,11-17.6,17.9c-21.1,33.5-1,60.9,18.2,68.3
		c25.2,9.8,48.1-14.4,44.1-35.7c-2.5-13.7-18.4-22.9-31.6-18.6c-9.1,2.8-14.5,13.2-12.3,22.4c2.6,15.2,26.3,5.5,13-5.3
		c7.2-1.3,17.4-6.9,18.5,6.3c1.7,20.5-29.8,32.5-44.2,2.4c-7.3-14.4,2.5-40.2,18.5-47.4c28.1,32,67.3,8,69.5-35.6
		c46-29.3,57,19.3,33,25.8c-8.7,2.4-10.1-1.9-11.1-5.9c1.4,1.5,2.8,3.4,5.1,3.6c4,0.5,8.1-4.2,5.6-7.9c2.6-0.5,1.2-3.2,0.4-4.7
		c-4.3-7.4-16.3-7.9-21.2-0.9c-5.9,8.2-3.5,21.6,5.7,26.4c9.7,5.1,22.2,3,30.4-3.9c17.2-14.1,12.5-43.5-8.9-51.4
		c-12.1-4.4-30-0.5-40.5,6.7c-3.3-16.1-15.7-28.5-29.5-35.2c9.8-5.5,20.1-10,31-12.7c-4.2,10-1.8,22.8,6.9,29.6
		c15.2,11.9,37.8-1.2,32.2-17c-2.6-6.5-10.3-9.7-16.9-8.6c-4.1,1.3-4.2,7.4-1.4,10c2.4,3.1,10.5,0.3,5.2,6.4
		c-9,8.1-22.5-6.8-14.9-18.3C961.7,306,964.2,302.9,967.9,303.3 M863.8,351.8c-4,0.8-4.4,5.5-3.9,8.8c0.9,4.6,8.4,4.8,10.1,0.6
		C872.7,357.1,869.3,349.9,863.8,351.8 M953.9,409.9c-6.5,2.4-5.3,15,2.2,15.1c4.4-0.3,9.6-3.9,9-8.8c-0.6-2.2-2.4-3.7-3.9-5.3
		C959.3,409,956.2,409.3,953.9,409.9 M931.9,419.8c-6.4,2.5-5.9,12.8,0.4,15.2c5.6,2.4,12.1-2.8,11.6-8.7
		C944.2,420.3,936.6,417.6,931.9,419.8 M926,437.5c-3.8,2.3-6.4,7.5-3.7,11.5c3.1,4.9,10.7,3.6,14-0.4
		C938.9,444.2,931.7,433.9,926,437.5 M837.6,459.5c-6.5,2.3-5.8,13.6,0.6,15.7c7.8,2.7,15.4-8.5,8.1-12.5
		C843.7,461.1,841,458.3,837.6,459.5z"/>
	<path class="st0" d="M582,314.8c17.3-6,35.2-10.7,53.5-11.6c-20.5,12.7-37.9,29.9-52.7,48.8c-28.5,35.9-26.6,47.6-55.9,59
		c10.7-8.5,3.6-14.5,1.9-20.6c-0.9-1-3-1.8-2-3.4c4.8-5.3,22.2,4.6,30.6-8.2c6.2-10.9-5-16.3-4.8-22.4c3.5-12.3,31.9-1,27.8-27
		c-0.1-2.8-3.5-3.8-4.5-6.1C576,319.6,578.9,316.3,582,314.8z"/>
	<path class="st0" d="M1003.1,303.4c12.6,1.4,24.9,4.3,37,7.8c0.1,2.3,0,4.8,1.4,6.8c2.3,3.6,2.3,8.8-0.6,12
		c-4.5,4.6-6.3,14.1,1.5,18.2c8.1,4,9.1,1.4,24.3,5.6c-2,2.6-3.8,5.5-6.7,7.2c-3.1,1.9-6.8,4-7.4,8c-1.5,5.7,2.8,11.2,7.8,13.5
		c4.4,2.7,11-0.8,16.7,5c-3.5,4.3-7.2,9.1-6.7,15.1c-5.7-0.7-11.4-1.1-17.1-1.1C1039.4,371.1,1030.3,327,1003.1,303.4z"/>
	<path class="st0" d="M672,304.1c9.7,1,19.1,3.7,28.1,7.4c-10.8,4-20.5,11.1-28,19.9C675.7,324.5,679.6,317.1,672,304.1z"/>
	<path class="st0" d="M627.1,322.1c8.9-7,18.7-13,29.1-17.5c10.6,3.3,12.1,21-3.1,25.9c-1.6,0.6-3.3-0.3-4.2-1.6
		c13.9-3.8-0.1-19.3-8.1-11.5c-12.8,12.2,6.1,42.3,32.3,12.2c-4.4,7-7.7,14.7-8.6,23c-22.4-20.2-62.5-7.8-60.7,24.8
		c1.7,32,57.8,28.8,50.1,0.1c-2.2-8.1-11.7-12.8-19.6-10.9c-4.9,0.9-7.5,8.5-3.2,11.6c4.9,3.9,9.7-3.6,11.8,3.6
		c-0.8,10.2-30.1,10.3-27.8-8.4c1-9.8,9.3-18,19-19.4c10.7-1.7,20.5,3.9,30.1,7.8c1.9,38.7,40.9,53.2,62.5,24.8
		c41.6-4.5,51.7,38.2,44.4,54.7c-5.3,12.7-23.8,16.8-36.7,11.3c-11.7-4.8-17.8-19.6-10.5-26.8c3.1-3.4,8.6-3.8,12.4-1.2
		c-1.2,1.7-2.6,3.5-2.3,5.7c0.3,3.1-0.1,6.9,2.9,8.8c9.1,5.1,21.2-8.6,7.1-23.3c-13.9-14.7-33.5-1.7-35.6,12.9
		c-2.6,17.2,12,42.1,43.1,39.3c23.3-2.4,39.1-25,32.4-51c-6.5-25.8-29.6-46.7-53.6-40.6c6.5-39.9-37.6-42.8-40.2-22
		c-2.4,18,15.7,25.5,21.1,14.9c1.4-5-4.1-9-8.7-8.2c0.9-2.1,1.1-5.4,3.8-5.9c4.3-1.1,8.2,2,10.1,5.6c10.3,16.7-11.2,35-28,24.6
		c-13.4-7.9-18.3-35-4.8-50.2c7.8-9,18.9-17,31.4-16.2c18.4,9.3,34.1,23.4,53.6,30.8c-11.9,59.9,69,43.2,18.1,163.3
		c-19.7,47.7-20,49.5-25.9,58c-0.9-3.5-20.3-54.2-26.3-66.2c1.2-12.3,14.2-20.7,26-18.7c18.1,3.2,19.2,22.1,6.6,27.7
		c-3.2,1.5-7.9-0.5-7.9-4.4c0.6-0.6,1.3-1.1,2-1.6c8.5-5.9-7.8-20-14-4c-4.3,12.6,7,26.8,22.2,23c15.5-4.1,23.9-24.7,15.4-38.4
		c-9.3-15-37.5-24.9-56.8,4.4C692,434.4,629.6,392.8,559.1,403C575.2,384.7,590.3,351.4,627.1,322.1 M743.2,352.4
		c-3.7,1.6-5.4,6.1-4.9,9.8c2.2,11.9,28,2.6,12.1-9.9C748.2,351.2,745.5,351.9,743.2,352.4 M657.6,398.1c-1.8,0.7-3.5,1.4-5.1,2.4
		c-2.9,2.1-3.4,6.8-0.9,9.4c10.3,11.8,17.8-0.2,13.6-8.6C663.9,398.7,660.5,396.9,657.6,398.1 M680,407c-3.9,2.3-7.2,7.7-4.8,12.1
		c4.2,7.7,19.4,3.9,14.4-8.5C687.7,407.7,683.5,405.9,680,407 M691.1,426.6c-6.3,2.5-4.6,12.1,1.2,14.2c5.2,2.8,11.2-2.4,10.8-7.8
		C703.6,426.9,695.7,424.9,691.1,426.6 M774.9,470.9c1.5,4.2,7,6.1,10.8,3.9c3.2-2.6,6.3-7.5,3.6-11.5
		C782.3,456.5,770.3,462.4,774.9,470.9z"/>
	<path class="st0" d="M1050.6,314.6c18,6.2,35.2,14.3,51.9,23.2c5.7,3.6,10.5,10.9,7.6,17.7c-0.8,3.5-5.3,3.9-6.8,6.9
		c-10.8,18,4.2,20.4,23.3,24.8c-0.5,2.8-3.3,4.6-5,6.9c-1.8,2.8-5.9,2.9-7.3,6.1c-2.3,4.2-4.5,8.9,3.8,15.8
		c-10.4-4.6-21.2-8.1-32.2-10.8c-0.8-1.5-2.6-3-1.8-4.9c1.9-5.4,7.3-9.3,8.1-15.2c0.2-6.1-5.2-10.6-10.8-11.8
		c-4.9-1.8-9.5,1.6-16.2-2.9c16.6-7.7,19.5-25.5,2.1-28.1c-5.6-1.2-12.3-0.8-16.8-4.9C1059.1,326.5,1057.3,323,1050.6,314.6z"/>
	<path class="st0" d="M496.6,356.9c21.4-12.6,43.1-24.9,65.9-34.7c1.6,2.8,10.5,10.4,2.1,14.9c-8.9,4.6-28.2,5-25.9,19.2
		c0.4,7.4,8.9,10.3,1.4,16c-5.4,3.2-17.5-4.1-25.6,5.8c-6.1,7.1,0.5,14,1.1,16.2c0.3,1.3,1,2.5,2.3,3.1c-5,7.3-4.1,3.5-7.7,5.9
		c-10.1,6.4-11.3,10.6-10.2,19.9c-24.4,13.7-35.9,25-55.1,40.2c1.5-3.5-1.7-6.8-0.1-10.2c3.3-8,11.7-4,22.3-10.7
		c8.5-5.7-1.5-16,2.6-20c4.1-1.7,8.7-1.2,13-2.5c9.6-2,9.3-15.6,4.3-19.7c-1.5-1.3-3-2.9-2.6-5.1c1-0.5,27.2-8.4,19.2-27.4
		C501.8,363.9,499.9,359.9,496.6,356.9z"/>
	<path class="st0" d="M269.4,340.1c9.3,8.4,5.2,23.9-1.9,25.6c-4.2,0.8-6.8-4.8-11.1-3.4c-4.6,1.6-6.3,8.6-2.7,11.9
		c1.8,1.7,3.9,2.9,6,4.1c-0.5,17.6,14.4,32.7,27.9,43.3c-37.5-2.8-74-29.1-65.3-65.5C230.1,337.9,255.4,327.5,269.4,340.1z"/>
	<path class="st0" d="M1386.3,335.5c14.9,4,24.5,16.9,24.9,23.6c1.1,14.5,2.6,20-9.2,35c-14.4,17.6-33.6,25.3-56.4,27.7
		c2.7-3.1,27.7-19.9,27.6-43.3c2.2-1.6,4.7-2.8,6.5-4.9c3.2-3.9,0.6-10.9-4.4-11.5c-3.9-0.3-11.3,10-16-3.1
		C1353.3,343,1369.6,330.7,1386.3,335.5z"/>
	<path class="st0" d="M1124.9,350.4c6.1,3.5,12.4,6.9,18.1,11c26.9,70.3,24.2,73,34.3,93.5c-9-7.3-18-14.8-27.7-21.2
		c0.9-14.5,9.3-21.7-21.3-28.6c2.8-2.3,5.5-4.7,8-7.4c6-5.4,4.3-16.4-2.6-20.3c-7.4-4.2-24.2-4.6-18.7-8.6
		C1120.8,361.8,1123.9,361.3,1124.9,350.4z"/>
	<path class="st0" d="M870,361.2c-1.7,4.2-9.1,4-10.1-0.6C857.6,345.8,876.1,351.9,870,361.2z"/>
	<path class="st0" d="M779,352.4c2,0,3.9,0,5.9-0.1c9.4,10.7,43.7,16,60.8,0.6c4.2,35.2-26.8,37.8-30.7,77
		C803.4,387,779.8,389.3,779,352.4z"/>
	<path class="st0" d="M473.4,371.1c4.5-2.9,9.2-5.6,13.7-8.4c14.8,28.4-21.2,11-16.2,37.3c0.2,2.3,2.6,3.3,3.9,5.1
		c0.3,1.4-0.1,2.8-0.4,4.1c-0.7,1.7-2.7,0.9-4.1,1c-2.3-0.3-14.7,2.1-14.3,11.7c-0.1,5.8,4.8,8,0.2,11.2c-6.2,3.2-28,2.2-24.3,20
		c3.4,19.3-5,13.1-2.8,22.1c-24,17.3-45.8,24.1-69.3,24.6c1.9-2.2,50-24.1,103.1-109C467,384.7,471.7,378.5,473.4,371.1z"/>
	<path class="st0" d="M1158.3,370.3c50.9,30.9,121.1,74.3,199.2,62.1c18.7-3.3,36.8-11.6,50.5-24.8c-20,87.7-132,118.5-203.5,68.3
		c0.1-5.2-11.9-17.5-18.4-32.3C1175.8,419.6,1169.2,394.1,1158.3,370.3z"/>
	<path class="st0" d="M457.7,380.7c-31.5,46.5-72,98.5-124.3,116.6c-4.8,1.8-89.4-8.2-108.5-89.4c34,31.4,85.4,31.1,129.8,19.6
		C401.6,415.5,441.8,389.3,457.7,380.7z"/>
	<path class="st0" d="M1120.5,416.8c9.2,1.8,14,2,16.1,8.5C1131.3,422.4,1125.9,419.7,1120.5,416.8z"/>
	<path class="st0" d="M815.1,465.5c3.5,45,19.4,87.5,54.1,116.4c-4.1,3.1-8.6,5.8-13.4,7.8c-3.9-5.3-9.1-9.6-13.1-14.8
		c-37.3-47.8-31.8-35.8-47.6-5.5c-3.7,7.2-10.2,13.3-11,21.8c-0.8,0.7-1.5,1.3-2.3,2c-6-1.7-12-3.7-17-7.6
		C777.1,575.3,808.9,502.8,815.1,465.5z"/>
	<path class="st0" d="M395.7,506.7c4.6-1.6,9.1-3.4,13.4-5.4c37.4,66,8.4,40.6,108.3,293.7c83.9,211.8,97.9,204.1,128.1,271.5
		c-9-0.8-18.1,0.1-27.1,0.4c-7.5-8.8-106.8-222.1-148.7-354.6C469.4,711.3,406.6,520,395.7,506.7z"/>
	<path class="st0" d="M1223.9,501.3c4.3,2,8.7,3.9,13.3,5.3c-12,15.4-20,47.7-82.6,231.9c-29.2,85.6-98.8,248.2-119.2,284
		c-14.7,27.5-14.3,32.8-17.3,40.7c-1.4,1.1-2.5,2.6-4,3.6c-8.9-0.2-17.9-1.1-26.8-0.4c32.2-71.2,30.2-36.9,112.6-233.6
		C1203.6,587.1,1185.8,565.9,1223.9,501.3z"/>
	<path class="st0" d="M335.4,511.8c4.1,0.3,8.3,0.8,12.5,0.9c-22.1,94.3-63.7,182-102.8,269.1C220.8,835.3,199,889.9,173.8,943
		c-19.6,41.4-48.2,78.7-61.3,123.1c-9.3,1.1-18.6-0.6-27.8,0.2C186.3,876.8,334.5,519.3,335.4,511.8z"/>
	<path class="st0" d="M1285.1,512.8c4.1-0.4,8.3-0.6,12.5-1.1c0.5,4.2,142.6,353.7,250.8,554.5c-9.3-1-18.7,1-28-0.3
		c-14.6-50.4-32.6-57.1-86.8-179.4C1350,695.3,1309.3,615.5,1285.1,512.8z"/>
	<path class="st0" d="M812.8,557.5c7.5,7.6,13.6,16.3,20.1,24.8c3.2,4.1,7.3,7.4,10.6,11.5c-17.6,4.3-36,3.9-53.8,0.7
		c0.8-2.7,3.3-4.3,5-6.4C806.3,574.4,807.5,567.6,812.8,557.5z"/>
	<path class="st0" d="M751.5,586.5c2.9,5.9,8.4,10.1,14.1,13c-11.4,14.5-17.4,16.8-36.1,26.3C730.5,609.6,735.3,588.4,751.5,586.5z"
		/>
	<path class="st0" d="M871.8,595.7c3.9-2.6,7.6-5.5,10.9-8.9c26.9,4.7,24.5,70.6,12.6,87.3C892.7,629.9,900.4,630,871.8,595.7z"/>
	<path class="st0" d="M853.4,604.3c3.2-0.8,6-2.5,9.1-3.7c5.4,7.5,12.6,13.8,16.4,22.3c5.7,12.8,3.7,27.1,4.7,40.7
		c0.3,5.4,2,27.6-4.1,32c-21.9,17.4-29.9,17.8-63.6,15.3C849.7,686.5,861,644.5,853.4,604.3z"/>
	<path class="st0" d="M774.7,603.2c6.3,2.2,12.8,3.4,19.4,4.5c-13.6,26.2-38.7,46.6-61.8,54.1c-1.7-7.6-2.9-15.4-2.8-23.2
		C747.5,629.1,766.3,621.7,774.7,603.2z"/>
	<path class="st0" d="M828.2,609c4.5-0.4,9.1-1,13.5-1.8c6.9,42-6.8,80.6-44.6,102.2c-20.4-1.2-27.9-6.8-38.2-10.8
		C794.5,682.1,837,643.7,828.2,609z"/>
	<path class="st0" d="M805,609.1c5.1,0.2,10.2,0.2,15.4,0.3c1,35.3-38.1,69.4-71.4,81.5c-4.5-6.6-9.6-12.9-13.2-20.1
		C761.2,665.8,795,633,805,609.1z"/>
	<path class="st0" d="M759.2,709.7c12.5,7.5,19.3,11.7,55.3,13.6c15.3,0.6,35.8,3.7,58.4-9.3c-4,27.6,35.8,38.6,13.1,101
		c-29.9,18-57.4,13.8-74.8,14c-18.4-0.2-47.3,3.4-63.5-11.7C722.7,747.3,768.4,741,759.2,709.7z"/>
	<path class="st0" d="M805.4,841.3c25.7,0,52.4,0.5,76.4-10.2c-2,18.4,10.6,31.8,4.5,52.6c-7.9-9-13.4-19.8-18.8-30.3
		c-2.1-4.3-8.9-3.9-11,0.2c-6.1,11.4-14.9,21.1-22.5,31.5c-5.3-8.8-9-18.4-13.7-27.4c-1.8-3.5-7.4-5-10-1.5
		c-8.9,12-12.5,27.5-23.6,37.9c-12.9-24.2-19.8-65.3-39.4-8.6c-7-20.3,4.5-32.9,4.3-51.7C768.2,841.9,787.3,841.2,805.4,841.3z"/>
	<path class="st0" d="M839.2,899.5c6.6-10.6,14.9-20,22.2-30.1c5.3,10,11.4,19.8,19.5,27.8c-0.6,1.4-1.2,2.8-1.8,4.3
		c-22.6,4.8-99.1,14.9-123,4.2c-1.8-3.9-3.6-7.9-5.6-11.7c4.4-7.9,8.1-16.3,13.8-23.4c10.2,21.3,14.2,42.8,23.5,36.5
		c12.2-6.2,18.1-19.2,24.2-30.7c0.8-1,0.9-2.9,2.4-3.1c4.3,9.2,8.5,18.6,14.8,26.6C831.5,903.1,837.3,903.3,839.2,899.5z"/>
	<path class="st0" d="M872.5,916.4c-4.3,11.5-0.3,23.6,2.7,34.9c-30.6,9.8-58.9,28.9-66,39.9c-25.2-18.1-43.7-41.5-47.5-72.6
		c9.2,2.9,18.8,4.7,28.5,4.4C808.9,923.3,863.2,918.7,872.5,916.4z"/>
	<path class="st0" d="M758.4,948.8c15.8,46.6,75.3,72.7,121.6,89.6c-0.8,12.8-0.8,25.6,0,38.4c-33.4-9.6-69.5-12.2-97.3-28.6
		c-19.9-11.5-30.5-29.1-30.4-32.8C751.4,993.1,751.9,970.4,758.4,948.8 M768.4,992.1c-10.4,2.4-14.4,17-7.3,24.8
		c5.9,5.8,16.8,4.6,21.5-2.2C789.9,1004.4,783.6,988.2,768.4,992.1 M808.8,1018.3c-10.6,2.2-15.2,17.8-6.7,24.9
		c6.3,5.9,17.1,4.8,22.4-1.9C832.6,1031.9,824.7,1014.1,808.8,1018.3 M836.2,1045.6c-2.4,7.4,1.9,16.6,9.5,18.8
		c16.3,3.5,25.4-16.1,12.2-26C851.4,1033.4,839.1,1037.2,836.2,1045.6z"/>
	<path class="st0" d="M877.8,962.1c4,20.9,3.4,42.2,2.5,63.3c-21.2-8.4-43-16.2-62.4-28.4C845.3,972,849.3,974.8,877.8,962.1z"/>
	<path class="st0" d="M753.2,1038.4c11.5,16.4,30.1,25.6,48.6,31.8c-0.8,25.6,8.6,49.8,15.7,73.9c2.8,8.6,6.4,17.6,13.7,23.4
		c-12.3,10.1-25.1,19.5-38.6,27.9c-9.8-18.9-30.9-53.7-51-60.2C755.2,1089.7,753.9,1066,753.2,1038.4z"/>
	<path class="st0" d="M812.3,1073.2c5.2,1.4,66.9,15.7,68.7,15.6c0.3,3.5,1.9,7,0.5,10.4c-7.4,23.6-23.2,43.6-41.1,60.3
		C826.5,1147,813.8,1091.3,812.3,1073.2z"/>
	<path class="st0" d="M111,1076.5c1.5-0.3,2.8,0.7,4.1,1.2c0.4,0.2,197.3,5.7,197.8,5.7c70.5-0.1,114.7-6.2,194.6-3.2
		c21.5,0.6,43.1,1.5,64.6,1.8c38.1,1.8,97.2-13.7,95,15.1c-0.7,1-10.1,24.2-26.8,20.9c-2.2-0.4-4,1.2-5.4,2.6
		c-19.5,2.3-39-1.4-58.5-1.4c-1,0-397.2,7.9-464-3c-4.2-0.8-8.5-0.7-12.7-0.8c-9.7-3.6-32.6-17.3-26.7-26.4
		C80.1,1076.8,91,1078.1,111,1076.5z"/>
	<path class="st0" d="M1520.5,1076.5c23,0.6,32.9,2.4,37.6,9.7c6.4,7.5,0.3,13.7-8.5,20.1c-16.4,11.4-18.3,8.6-22.2,9.1
		c-146.2,10.6-495.4,5.8-533.4,2.5c-2.5-0.3-11.5,3.4-22.5-10.9c-2.5-3.1-3.6-7-5.6-10.4c-2.1-26.4,52-15.1,84.5-14.5
		c41.8-0.3,83.6-3,125.5-2.7c46.8-0.4,121.1,6.8,194.5,2.8C1513.7,1075.8,1513,1080.8,1520.5,1076.5z"/>
	<path class="st0" d="M873.6,1139.4c5-6.9,9.2-14.4,12.9-22.2c4,17.6,10.1,34.7,16.4,51.6c-21.4,39.2-74,63.1-111,81.6
		c-46.7,22.3-69.3,25.6-111.2,28c7.1-13.1,13.4-26.7,19.7-40.3c3.2-0.3,6-1.9,9-2.8c35.5-12.4,52.6-3.5,101.4-37.4
		C834.2,1181.3,856.8,1162.8,873.6,1139.4 M879,1154.2c-10.1,2.1-15.1,15.7-8.9,23.8c4.9,5.7,14.5,5.1,19.8,0.3
		C899.7,1169.2,895.2,1150.4,879,1154.2 M844.4,1184.3c-8.5,2.9-11.2,15-5.5,21.6c3.9,4.5,10.9,4.8,15.9,2.1
		C866.9,1201.1,861.5,1178.6,844.4,1184.3 M808.3,1206.3c-17,3.4-13.8,24.4-1.6,27.8C831,1239.1,830.2,1201.4,808.3,1206.3
		 M764.5,1227.4c-18.2,3.7-14.7,35.5,6.4,26.5C784.7,1247.9,783.3,1223.3,764.5,1227.4 M709.4,1252.9c-0.5,10.5,8.5,17.4,14.4,14.6
		c10.8-4.7,17.7-12.3,11.6-21.9C728.9,1233.6,709.2,1238,709.4,1252.9z"/>
	<path class="st0" d="M109.1,1126.1c95.4,10.2,330.3,7.8,449.6,5.1c24.3,0.1,48.5,4.8,72.8,2.9c-5.6,14.9-9.6,30.4-16.5,44.8
		c-19.3,42.5-107.4,120.6-197.7,135.9c-48.9,8.6-127.9,1.3-176.9-23c-17.7-8.5-32.8-21.1-47-34.4c16.4,2.1,28.8-11.1,32.8-14.4
		c11.8,58.1,75.8,48.6,75.8,18.5c0.6-16.3-20.9-30.1-34.1-19.7c-9.9,8.3-2,13.7,2.1,13.2c4,0,7.6-10.3,16.7-0.2
		c13.6,14.5-24.6,32.7-41.8,4.8c-5.1-8.5-7.8-18.2-10-27.7c-0.8-2.6,0.7-4.9,1.2-7.3c1-4.2,0.7-8.5,0.1-12.7c0.8-4.1,2.1-8.3,4.1-12
		c6.6,16.8,25,27.6,27.6,17.6c3-9.2,10.9-16.7,6-27.8c7.9-1.4,16-4.5,21-11.1c4.7-5.4-9.1-12.9-15.1-14.3
		c47-14.4,79.7,23.8,57.4,52.3c-11.9,15.2-26.1,6-30.9,4.5c-3.7-1.2-5.3-5-7.3-7.9c-2.4-3.5-0.4-7.9,2.2-10.7c1.3,1,2.4,2.6,4.2,2.9
		c3.8,0.9,11.7-1.8,6.2-11.5c-9.5-15.4-21.5-8.1-25.8,0.7c-6.4,13.9,3.6,36.5,22.3,42.2c20.6,6.4,44.4-9.8,47.9-32.6
		c1.8-10.1-2.9-19.3,15.8-33.1c70.2-48.9,132.6,24.4,108.1,53.5c-12.3,15.3-50.8,13.2-52.4-17.1c-0.5-5.6,3.9-9.8,5.9-14.6
		c1.4,0.6,2.8,1.4,4,2.3c-0.5,1.8-1.5,3.7-0.7,5.6c1,4.3,7.1,6.7,10.4,3.5c18.8-19.2-34.8-42-32.4,4c-33.8-12.5-79.5,32.6-63.9,71.6
		c11.5,30.5,49.4,36.6,70.7,13.2c10.3-10.8,18.9-29.9,10-41.6c-9.3-12.4-36.1-13.9-46.7,5.5c-6.3,10.6-2.9,22.9,6.7,23.9
		c11.9,1.5,12.3-10.5,6.8-11.6c-1.9-0.4-5.3-0.8-4.1-3.6c9.1-18.9,37.8-12.3,26.1,10.2c-7.1,12.4-24.9,21.8-38.2,18.5
		c-20.1-4.2-27.7-30.6-17.3-49.6c6.2-10.8,18.9-23.3,32.3-27.6c25.3-8,16.8,19.3,48.9,27.6c-20.9,30.8,18.3,65.9,48.4,38.8
		c17-15.7-1.1-34.6-17.8-31.2c-5.2,1.1-8.7,6.5-8.3,11.6c0.4,3.8,5,5.9,8.3,4.4c2.2-0.8,2.7-3.7,4.9-4.5c7.8-0.6,15.2,12.7-6.9,17.3
		c-19.6,4.4-32.5-20.1-18.3-34.8c34.3-1.2,53.8-28.2,37.2-58.4c2.3-26.4,63.8-41,77.5-6.6c13.3,32.2-40.2,58-45.4,24.3
		c-1.4-2.5,0.9-4.7,3.2-5.4c0.6,1.5,0.9,3.3,2.5,4.2c4.2,2.6,10.5-0.7,10.6-5.7c0-14.3-13.9-21.2-24.3-10.1
		c-11.3,12-3.7,39.7,16.8,44.7c29.5,7.4,62.2-25.6,48.3-56.1c-20.7-45.8-85.6-25.9-97.5-2.1c-44.9-52.2-108.9-33.1-132,1.7
		c-13.9-32.1-68-33.7-100.8-10.8c-7.7-16.6-32.3-26.7-50.5-28.7c-25.5-3.1-31.3,17-25.5,28.6c7,15.5,26,14.5,29.6-0.1
		c1.2-5.4-6.6-9.4-10.3-5.3c-1.3,1.5-2.3,5.4-4.9,3.7c-3.7-2.9-5.3-9.3-1.8-12.9c6.5-7.1,49.7,2.2,53.8,23.2
		c-6.2,6.7-10.9,15-12.6,24.1c-22.1-26.8-70.1-18.4-65,7.7c3.4,18,27.7,30.9,41.8,18.3c10.5-9.2,1.4-27.9-10.5-18
		c-5.2,4.5-4.5,6.1-2.3,10.8c-2.6-0.6-5.3-0.9-7.8-1.9c-7.8-3.9-12.3-14.3-4.9-18c15.7-8.9,38.9,1.3,43,15.2
		c4,13.9-11.7,29.6-24.3,31.8c-9.4,1.8-23.8-4.4-25.5-6.4c-35.9-38.2-27.9-34.8-32.1-41.1C128.1,1175.6,115.7,1151.7,109.1,1126.1
		 M589.4,1150.7c-13.9,3.4-6.5,23.7,6.3,22.6c8.3-0.9,14.9-13.9,10.4-18.3C601.9,1150.5,595.1,1149.1,589.4,1150.7 M149.7,1163.9
		c-2.2,0.3-4.2,1.9-4.7,4c-1,3.3-3.6,6.4-2.8,10.1c2.8,12.1,23.5,9.7,25.4-4.8C169.9,1163.8,159.2,1163.2,149.7,1163.9
		 M390.8,1167.6c-12.9,4.6-11.8,21.5-1.4,24.9c11,4.2,25.1-14.4,14.6-23.1C400.3,1166.4,395.1,1166.2,390.8,1167.6 M310.5,1292.4
		c9,11.8,29.1,0,22.7-12.8c-1.4-3-4.4-4.5-6.6-6.8C316.4,1262.9,301.6,1281.1,310.5,1292.4z"/>
	<path class="st0" d="M1496.5,1128.8c9.2,0.3,18.3-1.8,27.5-2.7c-6.2,22.9-16.5,44.5-29.1,64.6c-10,16.7-7.6,18.6-45.1,56.9
		c-30.2,29-56.1,54.2-129.4,65.7c-97.2,14.8-177.7-1.4-268-89.1c2.1-8.9,6.7-17.1,12.8-23.8c6.8,29.3,32.3,38.4,34,18.9
		c0.6-8.3,1.3-16.9-1.2-25c23.6,9.1,34.3-8.4,28.1-20.7c25.9,0.3,37.8,16.4,38.8,17.1c18.9,19.3-9,51-34.3,36.6
		c-3.4-1.9-6.3-5.5-5.5-9.6c0.8-2.8-0.7-5.7,0.2-8.4c1-1.2,2.5,0,3.5,0.5c2.2,1,2.2,4,4.3,5.2c3.8,2.7,10.7,0.2,10.4-4.9
		c-2-17.8-17.7-21-27.3-8c-17.5,22.3,12.9,55.9,47.7,35.9c1.8,27,25.8,41.1,48.1,40.5c33.5-1.5,58.9-31.8,50.7-57.5
		c-1.5-5.1-4.6-9.3-7.6-13.5c-9.9-30.4,23.2-61.9,55.3-50.4c17.8,6.1,29,24.2,21.5,42.7c-8.9,23-30.3,16.8-34.6,5.9
		c-0.2-3.9,0.2-8.3,2.8-11.4c1.1,1.9,2,4.6,4.5,5c4.3,1.1,8.9-3.2,8.2-7.6c-0.8-5.7-5.7-10.9-11.6-11.1
		c-12.9-0.2-24.5,18.2-13.3,34.6c5.6,8.1,14.9,13.8,24.9,13.8c-4,10.1-2,21.7,3.7,30.8c0.8,1.5,2.4,3,2,4.9
		c-1.5,12.3-1.1,28.2-17.6,33.6c-11.8,3.6-30.7,3.5-31.7-14.8c-0.7-18,13-19.6,17.9-12.8c-10.2,2.6-2.5,16.2,4.8,14.4
		c6.1-2.8,10.3-10.1,8.5-16.8c-3.2-12.8-24.2-20.3-35.9-8.2c-10.6,10-10.9,32.6-0.5,43.9c14.5,15.2,62.3,14,65.1-29.8
		c47.8,38.1,122.3-23.5,107.1-63.6c22,0.6,43.7-19.9,39.9-39.9c-2.8-16.7-23.1-28.9-44.3-22.7c-18,5.4-21.6,21.2-18.3,30.2
		c6.2,16.2,34.8,14.5,30.5-3.5c-1-3.1-4.7-5.2-7.8-3.7c-2.9,1.6-4.1,5.4-7.5,6.2c-9.6-1.3-1.4-23.3,20.7-17.5
		c30.9,7.6,9,43-17.7,39.7c-2.8,0.2-4.1-2.5-5.8-4c-16.9-16.1-50.7-25.8-68.5-13c-5.1,3.5-8.3,8.9-11.1,14.2
		c12-66.8-105.9-74.2-103.4,1.9c-28.6-15.9-53.8,0.9-51.2,24c1.4,13.5,18.4,22.6,34.8,10c18.8-15.3-13.1-27.6-7.4-9.3
		c-3.4,4.5-12,4.1-13.9-1.6c-4.3-13.5,11.3-23.6,31.1-12.5c45.8,26.3-20,81.6-53.1,47.2c-10.4-11.6-10.7-24.6-7.9-27.2
		c10.2-11.5,13.1-33.2-4.9-50.6c10.3-28.1,46.7-24.6,52.4-15.7c2.3,5-0.5,11.7-5.6,13.6c1.3-5.9-3.1-11.7-10.9-6.4
		c-11.9,8,2,21.2,12.7,18.5c14.3-3.3,23-23.7,11.9-34.6c-12.8-13.4-56.8-14.5-68.5,18.5c-14.3-8.3-31.3-12.3-47.7-9.9
		c-1.4-6.5-8.5-25.4-15.2-23.6c-12.2,2.8-19.5,12-22.3,24.4c-3.7-4.7-7.7-9.4-13.1-12.3c-6.2-3.5-21.5-7.1-22.9,0.7
		c-2.5,14.8,4.6,31.3,18.6,37.7c-7.3,7.1-13.6,15.6-16.3,25.6c-27-26.9-31.8-53.7-41.6-80.3c22,1.7,43.8-1.8,65.7-2.8
		c1,0,229.6,6.5,396.4-1.2C1474.5,1129.5,1485.5,1128.9,1496.5,1128.8 M1488.4,1143.1c-14.4,3.1-7.6,23.9,4.7,22.8
		c4.6-0.5,6.3-5.3,9.1-8.4C1508.9,1149.1,1496.7,1141.4,1488.4,1143.1 M1392.4,1144.7c-12.1,4.1-10.1,26.3,2.3,22.5
		C1417.8,1159.6,1403.6,1141.1,1392.4,1144.7 M1346.1,1149.8c-4.2,1.7-8.2,13.3-1.9,18.9c8.5,7.4,25.3-2.6,20.3-10.1
		C1356.9,1151,1349.5,1148.3,1346.1,1149.8 M1147.6,1249.3c-5.8,1.2-13.1,13.1-7.9,19.5c8.6,10.8,28.3,5.9,25.8-6.6
		C1164.1,1254.2,1155.7,1247.6,1147.6,1249.3 M1218.3,1295.8c1.7,9.7,17.1,9.2,20.7,6.7c4.9-3.4,5.8-10.6,3-15.6
		C1235.4,1273.6,1215.4,1283.2,1218.3,1295.8z"/>
	<path class="st0" d="M707.1,1223.1c11.5-25.8,22.7-51.8,31.6-78.6c20.5,15.9,31.9,33.9,43.6,56.9
		C753.3,1216.9,734.2,1214.6,707.1,1223.1z"/>
	<path class="st0" d="M1086.5,1170.6c0.8-8.1,3.7-17,11.3-21.1c2.7,4.5,4.8,9.5,5.7,14.7C1097.6,1165.8,1092,1168.1,1086.5,1170.6z"
		/>
	<path class="st0" d="M1051.3,1157.9c11.1,1.9,16,9.6,22.5,19.8c-3.1,2-6.2,4.1-9.1,6.5C1057.7,1177.1,1051.7,1168.2,1051.3,1157.9z
		"/>
	<path class="st0" d="M258.9,1176.9c3.3-3.4,7.2-5.9,11.3-8.3c3.9,1.1,8-0.5,15.5,7.3c-6.3,4.2-14.3,4.9-21.6,3.7
		C262.1,1179,260.6,1177.8,258.9,1176.9z"/>
	<path class="st0" d="M1094.2,1180.2c6-2.6,12.3-4.5,18.8-5.5c1.6,2.9,7.5,8.9-2,10.1C1104.9,1185.6,1099.6,1182,1094.2,1180.2z"/>
	<path class="st0" d="M875.6,1215c12.3-9.8,23.2-21.3,32.1-34.3c9.6,23.9,20.1,47.5,31.1,70.9C914.9,1245.3,890.3,1234.8,875.6,1215
		z"/>
	<path class="st0" d="M251,1186.4c2.4,1.5,15.4,3.6,13.5,12.1c-0.8,3.8-2.8,7.1-4.6,10.5c-6.8-4.1-11.2-11.8-10.8-19.8
		C249.7,1188.3,250.4,1187.3,251,1186.4z"/>
	<path class="st0" d="M1072.8,1193.1c2.3-2,4.7-3.7,7.2-5.4c10.8,10.4,7.6,20.9,7.3,29.2C1084.9,1214.3,1078.7,1210.5,1072.8,1193.1
		z"/>
	<path class="st0" d="M1424.6,1217.6c6.5,35.3-73,86.1-100.3,34.2c-6-11.1-3.9-25-0.3-25.8c9.3-4.4,15.7-13.1,20-22.2
		c-7.2,46.4,56.5,39,45.2,12.7c-4.1-10.4-19.8-9.9-21.9-4.4c-1.8,4.5,1.9,10.3,7,9.6c-0.9,1.3-2,3.6-4,2.6
		c-4.5-1.6-12.4,1-13.6-13.5C1353.6,1174.1,1419.2,1189.2,1424.6,1217.6z"/>
	<path class="st0" d="M818.2,1250.7c16.8-8.7,33.3-18,48.8-28.9c14.5,28.9,68.6,43.5,78.9,44.1c4.8,10.4,10.8,20.3,16.2,30.4
		c-30.6,26.3-74.3,36.1-86.7,77.7c-14.6-3-29-6.7-43.3-10.7C836.4,1327.2,828.1,1282.3,818.2,1250.7z"/>
	<path class="st0" d="M807.6,1256.2c1.8,28.7,12.7,17.1,12.7,103.8c-96-26.1-134.9-68-135.1-71.3
		C727.8,1292.3,768.9,1275.8,807.6,1256.2z"/>
	<path class="st0" d="M660.1,1319.2c3.4-9.2,8.2-17.9,12.8-26.6c8.5,10.5,18.7,20,19,20.4c-15.8-1.1-21.2,19.5-11.6,26.2
		c10,6.6,25.3-2.2,22.3-17.7c57.9,44,170.3,67.5,225.5,70.2c20.1,0.6,24.7,1.4,46.4-9c-1.1,4.4-2.3,8.7-3.6,13.1
		c-6.8-4-16.7-1-20.4,5.8c-4,8,1.1,18.6,9.7,20.9c-16.6,8.6-67.4,5.1-88.9,1.4c-2.1-3-5.8-2.4-8.7-1.5
		c-21.2-3.6-49.4-11.1-50.4-11.4C775.1,1400.7,680.1,1379,660.1,1319.2 M712.3,1342.7c-9.6,1.5-13.5,15.2-7.1,22.1
		c4.5,5.8,13.4,6.2,19.4,2.8C736.4,1359.8,730.5,1338.7,712.3,1342.7 M757.8,1362.1c-12.6,4.4-11.8,18.5-4.1,25
		c7.3,6,19.8,1.8,22.6-7C779.1,1370.5,771.1,1357.4,757.8,1362.1 M816.8,1379.8c-10,2.3-14.2,15.9-8.1,23.9
		c5.3,6.6,16.8,5.8,21.8-0.9C837.9,1393.2,833.1,1376.2,816.8,1379.8 M867.2,1389.1c-15.9,4.3-12.7,24.3-0.5,27.8
		c6.2,1.4,13.4-1.3,16.8-6.8C888.9,1400.9,881.1,1385.2,867.2,1389.1 M905.7,1408.7c0.8,22.5,32.8,18.7,28.1-4.9
		c-3.7-2.8-7.6-5.3-11.4-8C918.5,1392.6,905.8,1398.2,905.7,1408.7z"/>
	<path class="st0" d="M967.5,1306.9c8.6,18.9,15.3,33.4,9.7,63.8c-28.2,11.6-59.6,10.5-89.1,5.6
		C899.8,1340.3,942.1,1332.5,967.5,1306.9z"/>
	<path class="st0" d="M654.9,1335.9c35.2,58.3,96.7,70.7,158.3,88.6c-4,13.2-13.6,23.4-22.1,33.8c-10.6,12.8-18.8,27.7-31.5,38.6
		c-3,2.8-7.1,4-9.9,7.1c-32.7-8.3-72.5-20.9-95-44.2C690,1420.4,645,1389.3,654.9,1335.9z"/>
	<path class="st0" d="M823.5,1427.2c11.1,2.7,22.2,5.3,33.4,7.4c-10.2,25.5-4.2,64.7,4.6,75.5c-35.4,7.5-65.6,4.3-100.9-3.3
		c13.1-5.9,22.1-17.6,30.7-28.7C803.3,1461.8,819.4,1445.8,823.5,1427.2z"/>
	<path class="st0" d="M965.1,1435.1c0.8,4.7,2.6,9.3,4.9,13.5c-28.1,26.7-56.8,47-95.8,58.3c-0.5-2.6-1.9-5.3-4.7-6.1
		c1-2.4-0.3-4.9-1-7.2c-5.8-18.4-6.3-38.7-0.1-57.1C891.8,1440.7,943.7,1445.9,965.1,1435.1z"/>
	<path class="st0" d="M934.4,1493.9c15.7-9.8,30.1-21.7,43.4-34.6c10.5,11.8,23.5,20.8,35.8,30.6c-9.5,4.5-16.8,12.2-24.3,19.4
		c-12.7,13.4,46.8,17.2,62,17.9c5.2,5.7,10.5,11.2,15.6,17.1c-18.3-9.8-34-9.4-54.2-3.2c-27.4,8.6-46,24.3-47.4,52.6
		c-33.1-39.1-110.2-28.7-124,21.6c-2.9-5.5-5.4-11.2-9.2-16.1c-21.4-28.5-55.3-29.1-86-11.4c-9.4,5.4-17.5,13-23.7,21.9
		c-0.6-13.9-10.1-36.9-22.2-46.9c-11.2-9.6-33.7-14-62.9,1.2c-9.2,4.7-17.4,10.9-24.9,17.9c0.7-11,4.4-43.6-20.1-50.7
		c-4.4-1.4-9.1-0.5-13.6-0.5c11.7-4.2,47.8-19.4,40.5-29c-2.1-2.2-4.7-3.8-7.2-5.5c11.7-10.2,24.8-18.8,36.1-29.5
		C672.3,1500.5,820.6,1565.9,934.4,1493.9 M625.6,1499.3c-8.8,4-2.9,21-3.9,29.9c-0.4,8.2-2.3,17.3,2.1,24.9c1.7,3.2,6.4,3.4,8.9,1
		c26.6-24.7,32.9-16.9,45.5-25.1c8.5-6.2,4.1-11.4,1.4-12.3C654.4,1507.7,641.4,1496.7,625.6,1499.3 M962.4,1513.6
		c-10.1,2.2-19,7.9-29,10.4c-8.6,2.2-17.4,4.5-24.8,9.7c-5.2,2-4,11.1,1.5,11.7c8,0.3,15.9-2.4,43.5,20.5
		c11.4,10.3,13-19.5,22.1-45.2c1.2-3-0.4-7.1-3.7-7.8C968.8,1512.3,965.5,1513,962.4,1513.6 M709.4,1531.7c-6,1.1-2,6.1,7.9,36.9
		c9.4,29.4,18.7,5.7,35.9-2.4c6.2-3.1,13-6.4,16.6-12.7c1.5-2.4,1.7-5.8-0.5-7.8c-2.2-2.4-5.6-1.9-8.5-2.2
		c-14.2-1.2-27.7-6.2-41.4-9.7C716.2,1532.9,712.9,1531.5,709.4,1531.7 M829,1545.6c-8.1,0.4-16.6-0.3-24.2,3.1
		c-1.9,1-4.1-0.5-6.1,0.5c-3.3,1.5-4.8,5.9-3.1,9.1c1,1.8,3.1,2.3,4.9,2.9c9.7,3.2,19.3,7.2,27.2,13.7c6.2,5.1,13.6,17.1,25.5,2
		c13.6-16.6,28.1-29.3,19.3-34.1C860.3,1535.8,843.2,1545.1,829,1545.6z"/>
	<path class="st0" d="M1005,1510.2c5.3-4.8,10.4-9.7,15.7-14.5c6.4,5.8,12.5,12,18,18.6C1033.3,1514.3,1006.1,1510.4,1005,1510.2z"
		/>
	<path class="st0" d="M598.2,1510.2c1.8-2.4,3.9-4.5,6.1-6.6c0.6,0.4,1.3,0.9,2,1.4C603.7,1506.8,601,1508.6,598.2,1510.2z"/>
	<path class="st0" d="M630.6,1511.2c6.2-0.2,27.9,10,33.5,12.6c-9.3,4.2-11.9-0.1-31.9,16.3C634.2,1525,633.6,1534,630.6,1511.2z"/>
	<path class="st0" d="M942.2,1532.7c6.5-2.3,12.7-5.4,19.4-7.2c-2.6,8.4-4.7,16.9-7.1,25.3c-7.4-5.9-15.5-10.7-24-14.6
		C934.3,1534.9,938.3,1533.9,942.2,1532.7z"/>
	<path class="st0" d="M562.7,1548.1c16.8-6.6,36.4-4.2,38.4,13.6c2.5,21.1-8.3,46.3,5.6,44c3.1-0.5,4.2-3.9,6-5.9
		c19.4-24.5,86.4-68.9,98,14.5c0.9,6.3,3,18.2,9.7,19.7c12.5,3.6,1-19.4,33-37.5c22.3-12.4,49.2-13.3,64.9,6.3
		c9.2,11.2,13.8,25.3,21.4,37.5c2.8,4.6,11.6,2,11.1-3.5c0.1-15.8,0.4-38.5,34.8-50.3c60.4-19.6,78.9,32.1,81.5,34
		c3.6,2.8,10.1,0.8,10.5-4c0.8-17.1-3.4-35.9,13.9-50.4c16.8-13.7,46.8-23.5,68.6-10c7.2,4.4,13.4,10.2,19.9,15.6
		c14.4,11.9,18.1,6.6,31.9,25.1c-0.5,0.2-1.7,0.7-2.2,0.9c2,0.4,4,0.9,6,1.5c-1.2,6,2.1,7.1-16.4,16.6
		c-98.2,46.2-245.7,74.3-368,54.6c-109.7-18.5-111.5-28.5-175.1-47.1c-11.6-3.4-32.2-10.4-38.6-23.1
		C517.5,1600.3,553.5,1558.1,562.7,1548.1 M997.4,1587c-2.2,8-0.4,17.1,5,23.5c13.4,4.7,2.2,0.7,23.9-6.8
		c12.1-4.3,24.8-6.5,37.6-7.4c14.7-0.4-4.2-30.2-26.3-34.9C1020.3,1557.9,1002,1570.2,997.4,1587 M557.9,1564.6
		c-14.7,6.6-27.5,25.2-20,34.2c5.7,1,11.5,0.6,17.1,2.4c8.2,2.3,14.2,8.8,21.7,12.6c10.2,5.5,13.5-22.8,12.1-32.3
		C586.7,1566.5,573.3,1557.7,557.9,1564.6 M665.1,1582.5c-46.3,11.2-34.9,41.2-25.7,35.7c13.5-7.7,52.9,13.8,57.1,12.3
		C709.5,1626.3,699,1573.1,665.1,1582.5 M895.5,1595.3c-13.6,4.6-26.4,22.3-21.7,36.4c-4.3,7.7,1,12,4.6,11.3
		c3.4-1.2,28.7-16.5,59.8-12.2c3.3,0.5,6.8-2.4,6.8-5.7C945.5,1618.3,925.1,1584.6,895.5,1595.3 M749.7,1628.9
		c-2.1,2.7-2.2,6.8,0.3,9.3c3.5,4.2,18.6-0.7,34.2,1c15.5,2,34.1,9.7,32.7-2.4c-0.4-16.3-17.9-35.9-34.3-35.9
		C767.6,1601.3,750.7,1613.6,749.7,1628.9z"/>
	<path class="st0" d="M721.7,1547.5c10.1,1.5,19.7,5.1,29.8,6.6c-7.5,4-16,7.1-21.7,13.8C727.2,1561,724.4,1554.3,721.7,1547.5z"/>
	<path class="st0" d="M859,1551.4c-2.7,3.1-15.3,17.4-16.4,20.4c-5.9-6.4-13-11.5-20.6-15.5C848.9,1555.5,846.4,1551.9,859,1551.4z"
		/>
	<path class="st0" d="M1052.1,1584.7c-21.3,2.6-38.6,9.6-45.4,14.2C1005.5,1575,1034.1,1560.8,1052.1,1584.7z"/>
	<path class="st0" d="M569.6,1572.7c10.4,1.3,7.4,17.9,5.9,26.2c-9.4-6.8-14.2-10-29.2-11.3C551.8,1579,558.9,1571.5,569.6,1572.7z"
		/>
	<path class="st0" d="M689.3,1615.3c-14.3-6.3-29.7-10.4-45.4-10.6C651.6,1596.7,685.4,1576.6,689.3,1615.3z"/>
	<path class="st0" d="M928.3,1617.6c-15.7-0.2-31.3,3.3-45.6,9.6C884.8,1608.3,909.7,1592.7,928.3,1617.6z"/>
	<path class="st0" d="M804.1,1631c-23.2-4.6-15.1-5.5-44.2-3.5C773.3,1602.8,795.9,1608.7,804.1,1631z"/>
</g>
</svg>
