<?xml version="1.0" encoding="utf-8"?>

<!DOCTYPE svg PUBLIC "-//W3C//DTD SVG 1.1//EN" "http://www.w3.org/Graphics/SVG/1.1/DTD/svg11.dtd">
<svg version="1.1" id="Layer_1" xmlns="http://www.w3.org/2000/svg" xmlns:xlink="http://www.w3.org/1999/xlink" x="0px" y="0px"
	 viewBox="0 0 1633 1754.971" enable-background="new 0 0 1633 1754.971" xml:space="preserve">
<g>
	<path d="M816.318,77.545c17.051-1.434,16.61,15.682,34.212,32.082c-13.713,6.819-29.405,7.088-44.381,7.054
		c-8.511-0.076-16.34-3.67-24.135-6.634C795.939,97.007,793.676,79.59,816.318,77.545z"/>
	<path d="M774.403,117.649c3.317,4.327,8.351,6.81,13.444,8.46c-23.438,32.552-9.412,122.42,2.525,142.656
		c-3.376-0.867-7.509,0.084-10.135-2.593c-13.409-11.941-59.624-35.466-47.159-88.324
		C740.134,147.019,762.154,129.324,774.403,117.649z"/>
	<path d="M838.079,126.707c7.517-1.431,14.833-4.1,21.273-8.275c24.502,22.751,47.821,49.168,41.552,86.733
		c-5.281,32.75-29.65,45.831-44.709,58.052c-4.282,3.086-0.504,3.253-15.902,3.999C854.755,224.578,860.343,166.09,838.079,126.707z
		"/>
	<path d="M799.877,128.702c9.445,0.101,18.966,0.21,28.412-0.699c15.964,38.096,15.123,83.932,4.563,122.982
		c-1.44,5.733-3.561,11.264-5.059,16.971c-7.677,0.429-15.346,1.12-23.032,1.086C779.483,233.177,783.05,143.968,799.877,128.702z"
		/>
	<path d="M841.059,279.119c-10.267,16.604-10.724,50.89-2.273,66.294c-21.095,8.745-39.167,5.35-45.029,0.867
		c9.353-16.686,7.929-51.002-1.347-66.327C802.881,280.979,834.647,279.793,841.059,279.119z"/>
	<path d="M967.905,303.28c21.076-4.041,40.07,23.857,50.577,42.041c10.11,17.762,13.688,38.202,22.089,56.697
		c-60.198,4.127-114.914,49.83-141.283,100.539c-13.401-18.148-36.78-26.702-50.711-17.173
		c-20.085,13.19-8.166,47.983,18.217,40.929c12.851-3.243,14.77-18.303,5.775-23.201c-4.125-1.763-13.365,1.941-9.85,10.152
		c-21.055,1.12-11.699-32.426,16.34-13.461c6.095,4.276,9.992,10.817,13.587,17.173c-0.419,1.006-19.707,50.732-19.724,50.787
		c-31.134-28.247-44.387-73.377-44.869-115.422c-0.406-40.729,5.985-41.378,21.281-60.418c10.092-12.386,10.77-24.656,7.854-40.096
		c16.618-3.973,30.423-14.648,44.642-23.563c34.319-4.337,45.722,58.146,16.979,72.548c-26.348,13.83-47.294-28.126-33.185-34.784
		c4.344-2.012,9.428-0.657,13.393,1.633c-7.046-0.143-8.679,9.816-4.765,14.286c3.527,4.706,10.75,4.344,14.993,0.808
		c11.312-7.575,2.536-29.432-12.838-32.183c-17.888-3.82-37.705,14.666-24.127,41.426c-7.517,4.041-12.872,10.977-17.586,17.897
		c-21.106,33.543-0.964,60.91,18.2,68.28c25.212,9.832,48.1-14.442,44.07-35.702c-2.542-13.705-18.419-22.931-31.594-18.621
		c-9.134,2.795-14.488,13.25-12.35,22.401c2.566,15.234,26.296,5.515,12.964-5.253c7.151-1.331,17.371-6.949,18.461,6.263
		c1.723,20.494-29.826,32.484-44.17,2.357c-7.258-14.361,2.496-40.185,18.512-47.378c28.077,31.96,67.305,8.022,69.526-35.601
		c46.033-29.33,57.026,19.262,32.991,25.751c-8.725,2.421-10.101-1.874-11.078-5.901c1.389,1.515,2.795,3.443,5.068,3.569
		c3.99,0.505,8.115-4.159,5.649-7.888c2.643-0.488,1.17-3.224,0.362-4.706c-4.293-7.383-16.264-7.896-21.197-0.926
		c-5.943,8.166-3.46,21.618,5.716,26.408c9.664,5.093,22.199,3.047,30.44-3.889c17.199-14.062,12.52-43.547-8.881-51.385
		c-12.109-4.385-29.991-0.534-40.458,6.684c-3.277-16.057-15.701-28.462-29.498-35.197c9.757-5.506,20.145-10.026,31.047-12.737
		c-4.15,9.976-1.76,22.78,6.878,29.641c15.169,11.854,37.841-1.177,32.191-17.013c-2.626-6.474-10.253-9.673-16.887-8.62
		c-4.142,1.305-4.192,7.383-1.389,10.043c2.41,3.108,10.476,0.292,5.236,6.381c-8.99,8.102-22.481-6.783-14.917-18.276
		C961.717,306.033,964.158,302.867,967.905,303.28 M863.83,351.811c-3.999,0.8-4.42,5.514-3.906,8.814
		c0.943,4.63,8.368,4.815,10.068,0.623C872.737,357.064,869.26,349.934,863.83,351.811 M953.863,409.905
		c-6.516,2.366-5.329,14.959,2.164,15.128c4.436-0.269,9.63-3.898,9.041-8.831c-0.581-2.18-2.407-3.696-3.864-5.278
		C959.318,408.954,956.237,409.299,953.863,409.905 M931.891,419.839c-6.364,2.509-5.867,12.804,0.362,15.153
		c5.607,2.374,12.063-2.812,11.626-8.721C944.233,420.285,936.606,417.557,931.891,419.839 M926.016,437.5
		c-3.754,2.273-6.415,7.501-3.704,11.541c3.073,4.899,10.725,3.628,13.983-0.387C938.88,444.16,931.672,433.868,926.016,437.5
		 M837.641,459.497c-6.541,2.332-5.842,13.562,0.648,15.692c7.842,2.685,15.374-8.471,8.14-12.518
		C843.71,461.147,841.042,458.285,837.641,459.497z"/>
	<path d="M582.013,314.787c17.283-5.969,35.205-10.691,53.54-11.558c-20.524,12.669-37.941,29.851-52.664,48.843
		c-28.483,35.947-26.584,47.619-55.914,58.987c10.721-8.524,3.645-14.461,1.911-20.625c-0.892-0.976-3.022-1.801-2.046-3.401
		c4.828-5.32,22.246,4.642,30.626-8.25c6.25-10.904-5.011-16.251-4.824-22.426c3.471-12.256,31.931-1,27.789-27.048
		c-0.109-2.812-3.452-3.78-4.47-6.07C575.96,319.577,578.89,316.336,582.013,314.787z"/>
	<path d="M1003.084,303.44c12.569,1.355,24.893,4.277,37.024,7.778c0.109,2.315,0,4.815,1.431,6.819
		c2.323,3.569,2.273,8.763-0.615,12.013c-4.535,4.635-6.344,14.073,1.549,18.183c8.125,3.987,9.122,1.424,24.27,5.632
		c-2.046,2.559-3.771,5.522-6.667,7.24c-3.073,1.945-6.785,4.016-7.417,7.955c-1.473,5.716,2.761,11.188,7.77,13.461
		c4.426,2.671,11.036-0.769,16.668,4.984c-3.51,4.327-7.164,9.134-6.692,15.077c-5.682-0.657-11.39-1.12-17.098-1.145
		C1039.417,371.139,1030.305,327.05,1003.084,303.44z"/>
	<path d="M671.97,304.088c9.664,1.027,19.076,3.712,28.058,7.366c-10.843,4.049-20.473,11.087-27.957,19.867
		C675.657,324.468,679.557,317.091,671.97,304.088z"/>
	<path d="M627.143,322.137c8.906-7.046,18.68-13.006,29.127-17.493c10.577,3.326,12.101,20.997-3.106,25.945
		c-1.599,0.598-3.308-0.286-4.15-1.65c13.889-3.808-0.136-19.284-8.056-11.533c-12.832,12.25,6.13,42.342,32.334,12.249
		c-4.386,6.97-7.736,14.69-8.561,22.965c-22.364-20.177-62.498-7.842-60.729,24.758c1.735,32.039,57.819,28.793,50.139,0.067
		c-2.231-8.115-11.718-12.779-19.648-10.91c-4.942,0.934-7.45,8.494-3.157,11.617c4.855,3.935,9.749-3.564,11.811,3.569
		c-0.845,10.201-30.075,10.338-27.772-8.401c1.044-9.774,9.311-18.023,19-19.354c10.7-1.717,20.532,3.906,30.104,7.762
		c1.877,38.656,40.912,53.167,62.497,24.8c41.649-4.513,51.663,38.159,44.364,54.685c-5.256,12.702-23.764,16.781-36.746,11.348
		c-11.688-4.786-17.837-19.607-10.523-26.804c3.148-3.367,8.637-3.78,12.417-1.221c-1.229,1.658-2.568,3.502-2.264,5.691
		c0.303,3.056-0.059,6.937,2.938,8.822c9.061,5.138,21.23-8.643,7.097-23.293c-13.903-14.651-33.468-1.722-35.567,12.905
		c-2.625,17.232,12.034,42.127,43.11,39.313c23.283-2.416,39.117-25.01,32.427-51.048c-6.504-25.844-29.632-46.742-53.641-40.551
		c6.527-39.894-37.587-42.818-40.163-21.972c-2.415,17.962,15.696,25.476,21.096,14.926c1.397-5.009-4.133-8.991-8.738-8.166
		c0.892-2.138,1.069-5.396,3.839-5.943c4.26-1.128,8.242,2.037,10.144,5.632c10.29,16.661-11.155,35.05-28.016,24.581
		c-13.412-7.93-18.264-35.037-4.815-50.19c7.837-9.024,18.865-17.013,31.4-16.214c18.444,9.26,34.144,23.403,53.557,30.828
		c-11.916,59.906,68.991,43.156,18.124,163.322c-19.737,47.656-19.955,49.465-25.928,58.01c-0.899-3.459-20.286-54.25-26.257-66.176
		c1.187-12.307,14.218-20.717,25.987-18.739c18.11,3.218,19.229,22.068,6.617,27.654c-3.199,1.549-7.905-0.522-7.871-4.378
		c0.631-0.581,1.288-1.128,1.987-1.642c8.537-5.873-7.824-20.027-14.016-4.032c-4.338,12.552,7.019,26.757,22.182,23.007
		c15.515-4.075,23.933-24.691,15.431-38.379c-9.327-15.047-37.479-24.871-56.815,4.394
		c-36.294-58.499-98.783-100.109-169.223-89.915C575.208,384.727,590.274,351.376,627.143,322.137 M743.188,352.383
		c-3.654,1.557-5.43,6.053-4.857,9.833c2.241,11.94,28.044,2.582,12.105-9.866C748.18,351.213,745.503,351.878,743.188,352.383
		 M657.617,398.078c-1.776,0.657-3.536,1.389-5.11,2.424c-2.946,2.054-3.418,6.793-0.935,9.403
		c10.318,11.836,17.763-0.153,13.646-8.587C663.855,398.675,660.513,396.857,657.617,398.078 M680.035,407.043
		c-3.906,2.264-7.189,7.728-4.765,12.139c4.169,7.743,19.386,3.897,14.37-8.469C687.712,407.666,683.503,405.932,680.035,407.043
		 M691.096,426.624c-6.331,2.492-4.63,12.122,1.237,14.151c5.177,2.77,11.163-2.416,10.784-7.812
		C703.623,426.859,695.676,424.932,691.096,426.624 M774.858,470.929c1.465,4.184,7.012,6.095,10.792,3.906
		c3.191-2.635,6.297-7.467,3.569-11.457C782.299,456.457,770.321,462.414,774.858,470.929z"/>
	<path d="M1050.555,314.569c17.956,6.171,35.18,14.277,51.941,23.167c5.733,3.578,10.514,10.86,7.644,17.72
		c-0.808,3.544-5.261,3.855-6.794,6.861c-10.828,17.963,4.215,20.354,23.31,24.825c-0.497,2.795-3.342,4.638-4.958,6.903
		c-1.827,2.829-5.935,2.946-7.341,6.095c-2.28,4.182-4.457,8.919,3.805,15.784c-10.405-4.554-21.197-8.149-32.225-10.817
		c-0.775-1.549-2.568-3.031-1.776-4.908c1.945-5.438,7.332-9.26,8.065-15.187c0.21-6.086-5.219-10.607-10.75-11.794
		c-4.915-1.764-9.514,1.585-16.247-2.862c16.617-7.666,19.474-25.46,2.054-28.142c-5.64-1.238-12.282-0.775-16.777-4.899
		C1059.095,326.473,1057.317,322.969,1050.555,314.569z"/>
	<path d="M496.618,356.946c21.408-12.585,43.051-24.91,65.915-34.717c1.611,2.841,10.539,10.442,2.088,14.909
		c-8.948,4.575-28.176,5.013-25.852,19.236c0.388,7.351,8.947,10.334,1.423,15.961c-5.386,3.241-17.508-4.051-25.558,5.75
		c-6.093,7.14,0.487,13.982,1.136,16.222c0.311,1.322,1.044,2.475,2.34,3.073c-4.959,7.317-4.088,3.536-7.652,5.935
		c-10.107,6.401-11.3,10.645-10.237,19.867c-24.425,13.685-35.923,25.017-55.148,40.206c1.49-3.46-1.709-6.802-0.126-10.178
		c3.323-7.995,11.726-3.979,22.266-10.666c8.482-5.74-1.453-15.966,2.568-20.044c4.091-1.726,8.738-1.237,12.989-2.483
		c9.637-1.989,9.306-15.604,4.302-19.741c-1.482-1.313-2.972-2.913-2.643-5.059c1.004-0.478,27.171-8.368,19.202-27.385
		C501.829,363.891,499.884,359.876,496.618,356.946z"/>
	<path d="M269.41,340.067c9.305,8.355,5.171,23.878-1.86,25.558c-4.243,0.775-6.794-4.807-11.078-3.359
		c-4.638,1.599-6.28,8.553-2.66,11.946c1.751,1.684,3.906,2.862,5.994,4.1c-0.505,17.621,14.419,32.663,27.864,43.32
		c-37.513-2.792-74.017-29.096-65.283-65.536C230.098,337.903,255.395,327.48,269.41,340.067z"/>
	<path d="M1386.274,335.522c14.855,4.006,24.475,16.923,24.918,23.554c1.1,14.486,2.568,20.001-9.235,34.995
		c-14.405,17.615-33.577,25.33-56.352,27.662c2.664-3.107,27.657-19.863,27.57-43.278c2.214-1.566,4.739-2.837,6.549-4.925
		c3.199-3.881,0.648-10.885-4.403-11.499c-3.92-0.279-11.34,10.042-16.037-3.123C1353.35,343.046,1369.573,330.747,1386.274,335.522
		z"/>
	<path d="M1124.905,350.38c6.103,3.519,12.4,6.903,18.141,10.961c26.905,70.252,24.183,72.953,34.279,93.501
		c-9.041-7.324-17.973-14.816-27.713-21.206c0.947-14.455,9.256-21.718-21.323-28.555c2.845-2.256,5.497-4.739,7.98-7.391
		c5.985-5.396,4.251-16.365-2.618-20.254c-7.392-4.249-24.223-4.557-18.655-8.57C1120.772,361.8,1123.926,361.345,1124.905,350.38z"
		/>
	<path d="M869.992,361.248c-1.701,4.192-9.125,4.007-10.068-0.623C857.611,345.763,876.145,351.868,869.992,361.248z"/>
	<path d="M779.042,352.383c1.961,0,3.94-0.017,5.926-0.118c9.374,10.748,43.713,15.99,60.763,0.598
		c4.233,35.16-26.779,37.751-30.727,77.044C803.418,386.987,779.769,389.275,779.042,352.383z"/>
	<path d="M473.417,371.131c4.479-2.946,9.151-5.59,13.73-8.368c14.783,28.35-21.158,11.009-16.188,37.343
		c0.202,2.332,2.643,3.342,3.889,5.085c0.252,1.364-0.084,2.753-0.446,4.091c-0.657,1.743-2.711,0.901-4.083,1.044
		c-2.293-0.298-14.675,2.111-14.345,11.685c-0.121,5.756,4.772,8.047,0.168,11.179c-6.161,3.249-28.023,2.176-24.261,20.035
		c3.361,19.287-5.049,13.115-2.753,22.089c-24.014,17.316-45.791,24.122-69.307,24.623c1.932-2.246,50.009-24.074,103.056-108.966
		C467.003,384.735,471.666,378.539,473.417,371.131z"/>
	<path d="M1158.317,370.306c50.942,30.926,121.126,74.321,199.243,62.143c18.688-3.283,36.788-11.567,50.543-24.783
		c-20.037,87.673-132.027,118.504-203.469,68.255c0.087-5.162-11.906-17.461-18.411-32.309
		C1175.844,419.586,1169.185,394.138,1158.317,370.306z"/>
	<path d="M457.692,380.694c-31.503,46.515-71.968,98.489-124.312,116.643c-4.815,1.815-89.415-8.204-108.477-89.427
		c34.046,31.439,85.371,31.089,129.75,19.581C401.642,415.483,441.806,389.324,457.692,380.694z"/>
	<path d="M1120.527,416.842c9.223,1.84,13.988,1.961,16.113,8.502C1131.319,422.398,1125.873,419.704,1120.527,416.842z"/>
	<path d="M815.122,465.516c3.523,45.008,19.447,87.531,54.054,116.391c-4.117,3.14-8.612,5.758-13.368,7.795
		c-3.906-5.337-9.058-9.58-13.057-14.833c-37.28-47.819-31.798-35.822-47.58-5.514c-3.662,7.231-10.152,13.326-10.986,21.761
		c-0.774,0.665-1.541,1.339-2.281,2.037c-5.994-1.701-12.047-3.704-17.013-7.593C777.116,575.254,808.874,502.755,815.122,465.516z"
		/>
	<path d="M395.692,506.749c4.563-1.583,9.058-3.393,13.444-5.447c37.4,65.95,8.362,40.634,108.326,293.704
		c83.944,211.77,97.86,204.052,128.067,271.539c-9.024-0.792-18.066,0.118-27.09,0.354c-7.54-8.838-106.78-222.128-148.725-354.585
		C469.386,711.302,406.585,520.002,395.692,506.749z"/>
	<path d="M1223.92,501.336c4.336,1.987,8.721,3.94,13.326,5.295c-12.025,15.37-19.985,47.706-82.625,231.897
		c-29.16,85.636-98.81,248.237-119.152,284.006c-14.747,27.493-14.306,32.842-17.342,40.685c-1.38,1.145-2.509,2.61-3.973,3.645
		c-8.923-0.21-17.855-1.069-26.77-0.362c32.222-71.171,30.168-36.855,112.636-233.589
		C1203.597,587.108,1185.836,565.906,1223.92,501.336z"/>
	<path d="M335.375,511.783c4.142,0.337,8.292,0.775,12.459,0.892c-22.081,94.296-63.654,181.997-102.77,269.148
		c-24.27,53.489-46.082,108.065-71.26,161.15c-19.581,41.443-48.203,78.694-61.344,123.075c-9.26,1.12-18.562-0.631-27.831,0.21
		C186.344,876.787,334.497,519.345,335.375,511.783z"/>
	<path d="M1285.112,512.793c4.142-0.412,8.317-0.606,12.476-1.052c0.467,4.194,142.615,353.663,250.804,554.535
		c-9.336-0.951-18.722,1.027-28.024-0.337c-14.596-50.401-32.612-57.129-86.775-179.41
		C1350.035,695.286,1309.292,615.517,1285.112,512.793z"/>
	<path d="M812.782,557.502c7.45,7.618,13.646,16.331,20.061,24.825c3.182,4.142,7.307,7.442,10.565,11.533
		c-17.602,4.319-36.03,3.856-53.792,0.749c0.825-2.719,3.283-4.327,4.992-6.44C806.316,574.379,807.489,567.598,812.782,557.502z"/>
	<path d="M751.472,586.545c2.938,5.901,8.376,10.051,14.143,12.989c-11.397,14.488-17.434,16.813-36.089,26.29
		C730.527,609.56,735.331,588.37,751.472,586.545z"/>
	<path d="M871.827,595.713c3.94-2.568,7.644-5.514,10.91-8.907c26.857,4.727,24.507,70.553,12.594,87.272
		C892.69,629.908,900.39,630.028,871.827,595.713z"/>
	<path d="M853.391,604.299c3.165-0.85,6.044-2.458,9.083-3.67c5.379,7.492,12.56,13.764,16.382,22.317
		c5.699,12.796,3.679,27.098,4.672,40.677c0.296,5.389,1.962,27.561-4.1,32.048c-21.944,17.437-29.877,17.832-63.558,15.254
		C849.69,686.472,860.971,644.521,853.391,604.299z"/>
	<path d="M774.74,603.23c6.28,2.164,12.821,3.401,19.362,4.521c-13.584,26.247-38.687,46.601-61.84,54.087
		c-1.726-7.593-2.854-15.372-2.828-23.167C747.541,629.1,766.263,621.747,774.74,603.23z"/>
	<path d="M828.162,608.996c4.529-0.429,9.058-0.96,13.536-1.827c6.943,41.985-6.796,80.64-44.566,102.239
		c-20.36-1.219-27.864-6.817-38.16-10.843C794.492,682.112,837.026,643.686,828.162,608.996z"/>
	<path d="M805.02,609.148c5.118,0.202,10.237,0.16,15.355,0.278c1.03,35.316-38.139,69.391-71.353,81.522
		c-4.495-6.617-9.588-12.88-13.2-20.052C761.212,665.778,795.002,632.984,805.02,609.148z"/>
	<path d="M759.25,709.712c12.492,7.526,19.3,11.656,55.274,13.587c15.343,0.569,35.832,3.712,58.406-9.277
		c-4.002,27.58,35.834,38.612,13.09,101.044c-29.907,17.965-57.422,13.758-74.788,14.025c-18.384-0.158-47.273,3.382-63.532-11.659
		C722.71,747.329,768.434,740.968,759.25,709.712z"/>
	<path d="M805.382,841.272c25.65-0.008,52.437,0.488,76.37-10.195c-2.045,18.422,10.639,31.839,4.47,52.614
		c-7.913-8.982-13.385-19.766-18.798-30.348c-2.138-4.302-8.923-3.872-11.028,0.236c-6.078,11.449-14.867,21.062-22.468,31.476
		c-5.27-8.797-9.016-18.377-13.747-27.435c-1.827-3.502-7.442-4.992-9.976-1.456c-8.873,11.988-12.467,27.486-23.596,37.882
		c-12.929-24.201-19.843-65.282-39.364-8.612c-7.038-20.287,4.463-32.936,4.268-51.713
		C768.182,841.887,787.291,841.247,805.382,841.272z"/>
	<path d="M839.156,899.468c6.566-10.624,14.892-19.993,22.233-30.062c5.261,10.026,11.39,19.783,19.454,27.822
		c-0.623,1.414-1.237,2.845-1.844,4.293c-22.557,4.812-99.104,14.945-122.99,4.243c-1.835-3.931-3.637-7.871-5.573-11.727
		c4.361-7.938,8.132-16.323,13.798-23.436c10.241,21.275,14.224,42.768,23.462,36.484c12.173-6.179,18.091-19.193,24.177-30.651
		c0.766-1.019,0.892-2.946,2.382-3.098c4.26,9.209,8.502,18.596,14.816,26.635C831.496,903.104,837.279,903.315,839.156,899.468z"/>
	<path d="M872.518,916.372c-4.336,11.491-0.337,23.613,2.711,34.86c-30.607,9.765-58.948,28.867-65.982,39.919
		c-25.198-18.058-43.686-41.503-47.504-72.633c9.201,2.904,18.79,4.672,28.471,4.42
		C808.932,923.276,863.172,918.708,872.518,916.372z"/>
	<path d="M758.366,948.807c15.847,46.575,75.263,72.669,121.61,89.595c-0.783,12.771-0.774,25.617-0.033,38.404
		c-33.38-9.582-69.47-12.178-97.315-28.555c-19.851-11.481-30.461-29.079-30.415-32.806
		C751.43,993.129,751.884,970.358,758.366,948.807 M768.426,992.11c-10.405,2.425-14.387,17.039-7.282,24.758
		c5.859,5.808,16.836,4.622,21.483-2.155C789.888,1004.442,783.621,988.228,768.426,992.11 M808.8,1018.3
		c-10.573,2.18-15.212,17.821-6.743,24.926c6.289,5.927,17.097,4.782,22.418-1.877C832.627,1031.942,824.731,1014.115,808.8,1018.3
		 M836.243,1045.642c-2.374,7.4,1.886,16.601,9.529,18.79c16.312,3.511,25.362-16.053,12.249-25.996
		C851.369,1033.365,839.051,1037.151,836.243,1045.642z"/>
	<path d="M877.83,962.091c3.99,20.86,3.376,42.226,2.526,63.339c-21.231-8.444-42.975-16.163-62.421-28.369
		C845.324,972.003,849.256,974.774,877.83,962.091z"/>
	<path d="M753.172,1038.402c11.499,16.374,30.146,25.566,48.632,31.754c-0.774,25.575,8.578,49.811,15.725,73.946
		c2.761,8.646,6.381,17.628,13.739,23.411c-12.274,10.068-25.086,19.497-38.556,27.906c-9.796-18.888-30.857-53.7-50.998-60.249
		C755.246,1089.742,753.912,1066.042,753.172,1038.402z"/>
	<path d="M812.319,1073.17c5.17,1.441,66.934,15.746,68.735,15.582c0.295,3.452,1.886,7.013,0.48,10.422
		c-7.433,23.63-23.218,43.598-41.115,60.3C826.546,1147.002,813.847,1091.302,812.319,1073.17z"/>
	<path d="M111.046,1076.453c1.482-0.261,2.77,0.656,4.117,1.17c0.445,0.227,197.254,5.686,197.753,5.682
		c70.456-0.097,114.701-6.221,194.588-3.224c21.542,0.556,43.068,1.541,64.618,1.76c38.124,1.773,97.226-13.699,95.008,15.136
		c-0.724,1.014-10.102,24.241-26.804,20.894c-2.189-0.412-4.024,1.162-5.413,2.643c-19.513,2.273-39.018-1.38-58.54-1.414
		c-1-0.027-397.194,7.889-464.013-3.039c-4.201-0.774-8.452-0.724-12.678-0.85c-9.735-3.588-32.562-17.339-26.669-26.425
		C80.071,1076.777,90.985,1078.124,111.046,1076.453z"/>
	<path d="M1520.478,1076.528c23.022,0.628,32.863,2.387,37.621,9.689c6.361,7.467,0.26,13.655-8.511,20.069
		c-16.365,11.387-18.311,8.645-22.174,9.05c-146.157,10.551-495.354,5.786-533.43,2.542c-2.515-0.251-11.473,3.403-22.544-10.918
		c-2.517-3.107-3.637-7.004-5.649-10.388c-2.121-26.382,51.998-15.114,84.477-14.547c41.839-0.311,83.644-3.005,125.491-2.728
		c46.791-0.424,121.059,6.815,194.495,2.77C1513.698,1075.841,1513.02,1080.85,1520.478,1076.528z"/>
	<path d="M873.62,1139.396c5.043-6.92,9.226-14.42,12.88-22.157c4.032,17.611,10.136,34.666,16.399,51.579
		c-21.392,39.234-74.017,63.13-110.978,81.648c-46.698,22.302-69.292,25.628-111.18,27.957
		c7.097-13.149,13.385-26.719,19.665-40.273c3.165-0.311,6.011-1.852,9.008-2.82c35.542-12.427,52.614-3.497,101.431-37.402
		C834.156,1181.276,856.776,1162.807,873.62,1139.396 M879,1154.178c-10.051,2.063-15.085,15.734-8.864,23.849
		c4.857,5.724,14.505,5.143,19.774,0.278C899.679,1169.169,895.224,1150.375,879,1154.178 M844.409,1184.316
		c-8.46,2.921-11.205,14.959-5.539,21.635c3.855,4.47,10.91,4.84,15.902,2.147C866.883,1201.138,861.456,1178.559,844.409,1184.316
		 M808.27,1206.254c-17.027,3.375-13.822,24.435-1.625,27.847C831.037,1239.085,830.16,1201.45,808.27,1206.254 M764.503,1227.358
		c-18.155,3.711-14.7,35.458,6.406,26.509C784.71,1247.913,783.257,1223.255,764.503,1227.358 M709.372,1252.899
		c-0.487,10.465,8.512,17.403,14.37,14.555c10.843-4.708,17.734-12.274,11.558-21.93
		C728.871,1233.641,709.172,1238.015,709.372,1252.899z"/>
	<path d="M109.127,1126.07c95.44,10.223,330.295,7.827,449.584,5.127c24.312,0.118,48.497,4.815,72.835,2.854
		c-5.564,14.9-9.647,30.382-16.508,44.785c-19.315,42.46-107.372,120.571-197.694,135.929
		c-48.891,8.578-127.909,1.256-176.918-23.015c-17.67-8.452-32.831-21.105-46.999-34.448c16.352,2.149,28.766-11.104,32.789-14.437
		c11.793,58.13,75.806,48.643,75.764,18.512c0.644-16.305-20.869-30.088-34.111-19.749c-9.9,8.32-1.952,13.711,2.105,13.233
		c4.022,0.042,7.587-10.298,16.727-0.227c13.635,14.5-24.647,32.739-41.78,4.773c-5.127-8.485-7.77-18.158-9.992-27.73
		c-0.817-2.551,0.749-4.9,1.17-7.332c1.002-4.184,0.657-8.494,0.059-12.686c0.842-4.142,2.113-8.258,4.15-11.962
		c6.616,16.771,24.999,27.57,27.57,17.619c3.032-9.245,10.949-16.656,5.977-27.78c7.863-1.397,16.037-4.478,20.987-11.07
		c4.738-5.355-9.145-12.926-15.145-14.319c46.98-14.417,79.66,23.822,57.362,52.286c-11.922,15.165-26.084,6.029-30.92,4.546
		c-3.662-1.212-5.303-4.958-7.282-7.913c-2.399-3.477-0.379-7.947,2.189-10.691c1.338,1.002,2.374,2.601,4.159,2.913
		c3.846,0.904,11.674-1.814,6.154-11.457c-9.504-15.366-21.539-8.083-25.76,0.699c-6.411,13.929,3.609,36.454,22.308,42.158
		c20.631,6.356,44.38-9.781,47.934-32.578c1.846-10.064-2.897-19.346,15.835-33.058c70.234-48.872,132.636,24.438,108.107,53.498
		c-12.293,15.264-50.843,13.205-52.429-17.072c-0.505-5.59,3.915-9.782,5.91-14.639c1.406,0.606,2.77,1.389,4.016,2.349
		c-0.53,1.793-1.507,3.67-0.749,5.581c1.01,4.318,7.071,6.701,10.447,3.527c18.764-19.203-34.789-42.02-32.377,4.049
		c-33.754-12.452-79.491,32.578-63.911,71.563c11.477,30.527,49.412,36.627,70.696,13.225c10.318-10.778,18.912-29.936,9.959-41.561
		c-9.305-12.413-36.051-13.895-46.746,5.548c-6.254,10.604-2.908,22.947,6.718,23.908c11.942,1.478,12.325-10.452,6.844-11.558
		c-1.894-0.446-5.253-0.85-4.108-3.62c9.098-18.865,37.839-12.285,26.105,10.177c-7.095,12.386-24.929,21.814-38.202,18.486
		c-20.088-4.186-27.682-30.614-17.257-49.642c6.201-10.791,18.864-23.256,32.301-27.57c25.334-7.995,16.814,19.298,48.902,27.603
		c-20.85,30.821,18.328,65.866,48.43,38.766c16.963-15.681-1.117-34.602-17.805-31.19c-5.194,1.061-8.721,6.465-8.258,11.626
		c0.396,3.788,4.967,5.876,8.317,4.445c2.197-0.833,2.719-3.662,4.899-4.487c7.84-0.642,15.248,12.689-6.878,17.308
		c-19.63,4.353-32.474-20.111-18.276-34.784c34.297-1.229,53.816-28.172,37.175-58.355c2.268-26.399,63.81-41.024,77.481-6.574
		c13.329,32.177-40.173,58.019-45.374,24.32c-1.414-2.534,0.901-4.672,3.165-5.379c0.573,1.482,0.909,3.334,2.45,4.226
		c4.226,2.559,10.523-0.724,10.641-5.716c0.042-14.295-13.855-21.224-24.27-10.077c-11.269,12.043-3.718,39.684,16.794,44.692
		c29.543,7.433,62.242-25.555,48.262-56.107c-20.654-45.758-85.595-25.936-97.517-2.063
		c-44.917-52.248-108.917-33.073-132.023,1.692c-13.881-32.109-67.961-33.724-100.775-10.801
		c-7.675-16.593-32.347-26.722-50.484-28.681c-25.477-3.134-31.261,17.041-25.49,28.605c6.985,15.522,25.992,14.536,29.59-0.059
		c1.204-5.379-6.642-9.403-10.27-5.303c-1.322,1.465-2.349,5.388-4.908,3.729c-3.704-2.887-5.329-9.268-1.768-12.888
		c6.492-7.051,49.672,2.224,53.784,23.243c-6.221,6.709-10.851,15.035-12.611,24.059c-22.075-26.828-70.087-18.402-65.014,7.719
		c3.413,18.016,27.725,30.937,41.754,18.327c10.545-9.182,1.394-27.892-10.548-17.973c-5.174,4.504-4.52,6.132-2.273,10.809
		c-2.601-0.581-5.278-0.892-7.753-1.886c-7.81-3.89-12.265-14.281-4.883-18.049c15.726-8.858,38.932,1.323,43.034,15.212
		c3.976,13.926-11.702,29.649-24.32,31.846c-9.36,1.787-23.783-4.403-25.507-6.356c-35.902-38.244-27.894-34.796-32.124-41.131
		C128.11,1175.578,115.727,1151.737,109.127,1126.07 M589.353,1150.719c-13.943,3.368-6.516,23.748,6.322,22.569
		c8.257-0.863,14.919-13.907,10.447-18.335C601.905,1150.525,595.145,1149.06,589.353,1150.719 M149.703,1163.851
		c-2.189,0.278-4.159,1.86-4.681,4.049c-1.019,3.325-3.586,6.364-2.761,10.068c2.824,12.104,23.512,9.652,25.448-4.849
		C169.918,1163.841,159.197,1163.214,149.703,1163.851 M390.759,1167.589c-12.89,4.598-11.837,21.504-1.44,24.943
		c11.003,4.15,25.052-14.412,14.614-23.091C400.339,1166.385,395.069,1166.166,390.759,1167.589 M310.541,1292.406
		c9.038,11.8,29.134-0.04,22.738-12.77c-1.364-2.997-4.445-4.52-6.65-6.768C316.36,1262.905,301.596,1281.107,310.541,1292.406z"/>
	<path d="M1496.477,1128.755c9.243,0.328,18.318-1.835,27.485-2.677c-6.213,22.889-16.483,44.532-29.085,64.576
		c-9.962,16.711-7.583,18.559-45.08,56.916c-30.153,28.996-56.086,54.221-129.43,65.688
		c-97.228,14.829-177.717-1.401-267.995-89.065c2.063-8.923,6.701-17.089,12.821-23.84c6.766,29.337,32.285,38.424,34.001,18.882
		c0.598-8.334,1.254-16.912-1.246-25.011c23.586,9.123,34.271-8.419,28.1-20.684c25.867,0.32,37.85,16.443,38.85,17.064
		c18.936,19.321-9.016,50.982-34.271,36.628c-3.401-1.86-6.314-5.48-5.472-9.555c0.808-2.812-0.682-5.708,0.202-8.444
		c0.96-1.229,2.467-0.008,3.519,0.505c2.222,0.977,2.18,3.99,4.26,5.186c3.847,2.685,10.725,0.235,10.438-4.933
		c-2.039-17.782-17.676-21.008-27.342-8.048c-17.546,22.3,12.869,55.919,47.664,35.929c1.797,27.026,25.777,41.089,48.051,40.517
		c33.543-1.466,58.873-31.76,50.711-57.505c-1.456-5.051-4.63-9.269-7.593-13.469c-9.902-30.426,23.227-61.88,55.325-50.442
		c17.762,6.107,29.009,24.168,21.492,42.655c-8.95,23.043-30.314,16.835-34.599,5.927c-0.21-3.906,0.235-8.3,2.769-11.449
		c1.052,1.902,2.004,4.563,4.504,4.975c4.344,1.052,8.932-3.157,8.216-7.602c-0.833-5.708-5.682-10.944-11.643-11.137
		c-12.876-0.216-24.549,18.178-13.259,34.649c5.573,8.082,14.934,13.781,24.901,13.798c-4.032,10.085-1.953,21.719,3.67,30.76
		c0.8,1.532,2.433,2.955,1.995,4.891c-1.516,12.321-1.116,28.247-17.577,33.564c-11.805,3.641-30.716,3.477-31.653-14.774
		c-0.667-18.03,13.034-19.573,17.914-12.77c-10.16,2.61-2.457,16.24,4.756,14.437c6.069-2.82,10.321-10.144,8.477-16.811
		c-3.198-12.76-24.224-20.343-35.937-8.208c-10.575,10.022-10.923,32.564-0.471,43.868c14.549,15.226,62.346,13.961,65.09-29.843
		c47.824,38.078,122.314-23.478,107.08-63.633c22,0.594,43.738-19.854,39.894-39.86c-2.778-16.65-23.081-28.88-44.347-22.712
		c-18.025,5.395-21.573,21.227-18.343,30.154c6.234,16.173,34.83,14.469,30.499-3.51c-0.985-3.106-4.748-5.186-7.787-3.696
		c-2.854,1.608-4.083,5.413-7.492,6.162c-9.624-1.328-1.381-23.278,20.726-17.502c30.88,7.638,8.99,42.968-17.729,39.658
		c-2.77,0.227-4.066-2.492-5.834-4.041c-16.925-16.102-50.694-25.781-68.482-12.998c-5.093,3.46-8.267,8.873-11.112,14.185
		c12.046-66.841-105.871-74.223-103.435,1.902c-28.633-15.921-53.787,0.906-51.217,23.958c1.405,13.498,18.353,22.621,34.801,10.026
		c18.832-15.343-13.076-27.572-7.408-9.285c-3.418,4.529-11.962,4.142-13.865-1.616c-4.253-13.517,11.348-23.594,31.063-12.459
		c45.782,26.319-19.998,81.618-53.069,47.201c-10.351-11.575-10.733-24.616-7.905-27.233c10.161-11.471,13.139-33.21-4.908-50.627
		c10.287-28.129,46.65-24.647,52.353-15.675c2.332,4.975-0.455,11.668-5.623,13.57c1.254-5.923-3.115-11.694-10.851-6.423
		c-11.945,7.995,1.971,21.185,12.712,18.52c14.33-3.275,22.953-23.731,11.853-34.591c-12.813-13.428-56.819-14.465-68.457,18.52
		c-14.252-8.342-31.316-12.316-47.732-9.942c-1.39-6.486-8.542-25.379-15.22-23.638c-12.186,2.804-19.476,12.03-22.334,24.379
		c-3.712-4.723-7.728-9.42-13.107-12.274c-6.176-3.456-21.451-7.07-22.94,0.673c-2.483,14.757,4.622,31.299,18.579,37.722
		c-7.29,7.122-13.579,15.633-16.323,25.583c-27.032-26.893-31.796-53.673-41.645-80.327c21.963,1.65,43.825-1.818,65.73-2.761
		c1.016-0.015,229.606,6.454,396.44-1.187C1474.548,1129.547,1485.5,1128.915,1496.477,1128.755 M1488.379,1143.142
		c-14.391,3.106-7.592,23.915,4.723,22.771c4.63-0.53,6.347-5.337,9.05-8.418
		C1508.906,1149.097,1496.667,1141.426,1488.379,1143.142 M1392.352,1144.708c-12.113,4.065-10.057,26.329,2.264,22.477
		C1417.753,1159.588,1403.629,1141.06,1392.352,1144.708 M1346.094,1149.759c-4.181,1.712-8.169,13.328-1.894,18.891
		c8.469,7.366,25.251-2.556,20.296-10.127C1356.935,1150.982,1349.47,1148.345,1346.094,1149.759 M1147.575,1249.287
		c-5.799,1.217-13.122,13.126-7.863,19.539c8.641,10.793,28.253,5.928,25.802-6.642
		C1164.109,1254.221,1155.707,1247.579,1147.575,1249.287 M1218.255,1295.79c1.698,9.671,17.092,9.245,20.667,6.718
		c4.916-3.367,5.834-10.598,2.989-15.582C1235.443,1273.586,1215.438,1283.202,1218.255,1295.79z"/>
	<path d="M707.082,1223.141c11.508-25.785,22.695-51.789,31.585-78.618c20.544,15.94,31.857,33.923,43.598,56.933
		C753.275,1216.876,734.166,1214.622,707.082,1223.141z"/>
	<path d="M1086.459,1170.644c0.775-8.132,3.696-16.971,11.348-21.079c2.744,4.521,4.782,9.504,5.724,14.732
		C1097.63,1165.804,1091.99,1168.136,1086.459,1170.644z"/>
	<path d="M1051.271,1157.924c11.051,1.898,15.992,9.565,22.485,19.8c-3.148,1.97-6.162,4.133-9.05,6.465
		C1057.694,1177.093,1051.658,1168.22,1051.271,1157.924z"/>
	<path d="M258.895,1176.924c3.258-3.384,7.248-5.901,11.255-8.3c3.857,1.072,7.992-0.484,15.456,7.256
		c-6.305,4.184-14.277,4.95-21.593,3.67C262.136,1179.037,260.571,1177.825,258.895,1176.924z"/>
	<path d="M1094.153,1180.199c6.01-2.551,12.316-4.521,18.789-5.497c1.604,2.922,7.467,8.918-2.02,10.119
		C1104.895,1185.587,1099.633,1182.009,1094.153,1180.199z"/>
	<path d="M875.599,1214.983c12.324-9.782,23.218-21.34,32.133-34.313c9.622,23.942,20.111,47.538,31.147,70.865
		C914.908,1245.273,890.349,1234.766,875.599,1214.983z"/>
	<path d="M250.999,1186.386c2.377,1.486,15.364,3.589,13.545,12.114c-0.774,3.788-2.837,7.13-4.605,10.54
		c-6.819-4.058-11.179-11.802-10.843-19.766C249.736,1188.306,250.368,1187.329,250.999,1186.386z"/>
	<path d="M1072.771,1193.062c2.281-1.97,4.731-3.729,7.24-5.388c10.814,10.405,7.572,20.922,7.315,29.152
		C1084.874,1214.273,1078.658,1210.5,1072.771,1193.062z"/>
	<path d="M1424.603,1217.593c6.483,35.254-72.951,86.072-100.337,34.161c-5.951-11.06-3.934-24.996-0.328-25.819
		c9.344-4.377,15.683-13.09,19.993-22.182c-7.169,46.368,56.536,39.039,45.189,12.653c-4.14-10.367-19.77-9.906-21.87-4.369
		c-1.785,4.521,1.877,10.321,7.012,9.614c-0.918,1.313-2.037,3.62-4.032,2.635c-4.483-1.585-12.446,1.028-13.638-13.469
		C1353.606,1174.118,1419.223,1189.244,1424.603,1217.593z"/>
	<path d="M818.203,1250.71c16.794-8.671,33.252-18.04,48.758-28.866c14.535,28.905,68.633,43.531,78.887,44.103
		c4.84,10.43,10.784,20.296,16.172,30.449c-30.615,26.319-74.306,36.136-86.716,77.675c-14.572-3.047-29.001-6.709-43.32-10.725
		C836.44,1327.189,828.149,1282.28,818.203,1250.71z"/>
	<path d="M807.613,1256.216c1.828,28.679,12.724,17.077,12.695,103.78c-96.045-26.057-134.877-67.98-135.138-71.328
		C727.821,1292.337,768.933,1275.825,807.613,1256.216z"/>
	<path d="M660.142,1319.218c3.409-9.235,8.233-17.88,12.813-26.576c8.475,10.462,18.724,19.997,19.017,20.372
		c-15.782-1.078-21.179,19.481-11.558,26.214c10.015,6.575,25.345-2.188,22.292-17.712c57.923,43.966,170.277,67.519,225.533,70.166
		c20.113,0.579,24.708,1.363,46.368-8.999c-1.103,4.386-2.323,8.738-3.561,13.09c-6.785-4.024-16.66-1.027-20.423,5.792
		c-3.973,8.023,1.111,18.587,9.689,20.886c-16.608,8.581-67.362,5.129-88.88,1.389c-2.121-2.972-5.758-2.45-8.738-1.498
		c-21.153-3.641-49.377-11.099-50.392-11.441C775.089,1400.685,680.057,1379.019,660.142,1319.218 M712.327,1342.747
		c-9.639,1.498-13.461,15.161-7.063,22.098c4.504,5.792,13.368,6.204,19.446,2.778
		C736.395,1359.766,730.486,1338.705,712.327,1342.747 M757.794,1362.05c-12.594,4.438-11.802,18.494-4.091,25.011
		c7.257,6.01,19.774,1.768,22.595-7.029C779.105,1370.509,771.109,1357.417,757.794,1362.05 M816.806,1379.795
		c-10.001,2.332-14.151,15.911-8.098,23.857c5.346,6.625,16.828,5.8,21.803-0.892
		C837.879,1393.203,833.139,1376.15,816.806,1379.795 M867.197,1389.072c-15.886,4.306-12.722,24.348-0.53,27.839
		c6.221,1.448,13.402-1.288,16.761-6.802C888.879,1400.878,881.117,1385.195,867.197,1389.072 M905.719,1408.721
		c0.822,22.509,32.76,18.728,28.109-4.891c-3.729-2.753-7.61-5.304-11.356-8.014C918.504,1392.578,905.762,1398.18,905.719,1408.721
		z"/>
	<path d="M967.517,1306.885c8.615,18.914,15.323,33.355,9.706,63.844c-28.151,11.558-59.576,10.472-89.082,5.64
		C899.782,1340.336,942.135,1332.452,967.517,1306.885z"/>
	<path d="M654.915,1335.869c35.166,58.337,96.698,70.692,158.263,88.61c-3.957,13.158-13.621,23.411-22.106,33.833
		c-10.59,12.77-18.764,27.688-31.501,38.564c-3.005,2.795-7.113,4.024-9.891,7.088c-32.674-8.321-72.456-20.907-95-44.196
		C690.034,1420.4,645.011,1389.314,654.915,1335.869z"/>
	<path d="M823.49,1427.173c11.087,2.66,22.199,5.253,33.404,7.408c-10.169,25.493-4.155,64.654,4.622,75.503
		c-35.43,7.517-65.584,4.295-100.901-3.292c13.107-5.918,22.148-17.636,30.701-28.74
		C803.309,1461.75,819.439,1445.794,823.49,1427.173z"/>
	<path d="M965.135,1435.103c0.825,4.74,2.576,9.277,4.891,13.511c-28.117,26.746-56.779,47.02-95.842,58.288
		c-0.539-2.643-1.945-5.295-4.697-6.07c1.01-2.45-0.311-4.891-0.96-7.214c-5.75-18.402-6.314-38.699-0.101-57.05
		C891.768,1440.65,943.744,1445.897,965.135,1435.103z"/>
	<path d="M934.366,1493.913c15.734-9.832,30.129-21.677,43.371-34.641c10.489,11.769,23.495,20.818,35.778,30.566
		c-9.521,4.462-16.786,12.24-24.261,19.387c-12.714,13.393,46.82,17.231,61.992,17.939c5.177,5.691,10.514,11.247,15.557,17.081
		c-18.325-9.806-34.004-9.359-54.188-3.165c-27.362,8.555-46.02,24.282-47.412,52.572c-33.118-39.087-110.155-28.699-123.967,21.568
		c-2.904-5.463-5.362-11.196-9.176-16.113c-21.39-28.539-55.309-29.133-85.992-11.398c-9.395,5.43-17.493,12.964-23.681,21.87
		c-0.648-13.876-10.146-36.912-22.207-46.898c-11.233-9.581-33.696-13.998-62.935,1.179c-9.151,4.689-17.417,10.918-24.943,17.88
		c0.724-10.959,4.398-43.627-20.12-50.678c-4.428-1.372-9.058-0.522-13.579-0.454c11.712-4.239,47.819-19.36,40.483-29.009
		c-2.088-2.214-4.672-3.847-7.164-5.522c11.743-10.186,24.766-18.832,36.106-29.498
		C672.311,1500.484,820.552,1565.869,934.366,1493.913 M625.585,1499.292c-8.774,4.02-2.866,21.024-3.864,29.868
		c-0.438,8.25-2.281,17.308,2.113,24.859c1.684,3.199,6.406,3.393,8.864,1.002c26.58-24.684,32.93-16.944,45.543-25.07
		c8.549-6.211,4.129-11.438,1.372-12.282C654.435,1507.696,641.386,1496.659,625.585,1499.292 M962.357,1513.595
		c-10.093,2.223-19.025,7.863-29.026,10.371c-8.603,2.239-17.4,4.504-24.766,9.715c-5.186,2.037-4.032,11.078,1.515,11.727
		c8.004,0.299,15.888-2.389,43.48,20.541c11.393,10.337,12.96-19.539,22.098-45.156c1.17-3.005-0.362-7.08-3.654-7.846
		C968.797,1512.256,965.505,1513.014,962.357,1513.595 M709.44,1531.669c-6,1.126-2.01,6.131,7.863,36.914
		c9.41,29.439,18.719,5.699,35.912-2.416c6.213-3.132,12.998-6.432,16.601-12.703c1.49-2.366,1.726-5.792-0.48-7.762
		c-2.172-2.366-5.623-1.928-8.494-2.214c-14.193-1.221-27.671-6.196-41.376-9.731
		C716.157,1532.923,712.899,1531.509,709.44,1531.669 M828.97,1545.584c-8.115,0.387-16.634-0.286-24.236,3.123
		c-1.928,0.985-4.133-0.463-6.061,0.471c-3.3,1.465-4.773,5.91-3.123,9.109c0.951,1.793,3.081,2.273,4.857,2.93
		c9.664,3.174,19.261,7.206,27.216,13.68c6.217,5.077,13.625,17.078,25.499,1.978c13.587-16.634,28.113-29.295,19.311-34.102
		C860.31,1535.779,843.223,1545.094,828.97,1545.584z"/>
	<path d="M1004.987,1510.244c5.253-4.824,10.439-9.714,15.725-14.496c6.372,5.817,12.543,11.962,18.015,18.63
		C1033.267,1514.333,1006.122,1510.438,1004.987,1510.244z"/>
	<path d="M598.218,1510.169c1.785-2.433,3.931-4.529,6.07-6.634c0.648,0.438,1.322,0.909,2.004,1.406
		C603.656,1506.768,601.046,1508.637,598.218,1510.169z"/>
	<path d="M630.636,1511.154c6.208-0.198,27.945,10.002,33.479,12.61c-9.35,4.227-11.939-0.064-31.93,16.306
		C634.191,1524.999,633.607,1534.038,630.636,1511.154z"/>
	<path d="M942.212,1532.696c6.507-2.265,12.711-5.354,19.354-7.248c-2.627,8.359-4.74,16.87-7.122,25.314
		c-7.357-5.876-15.49-10.683-24.034-14.589C934.316,1534.935,938.289,1533.917,942.212,1532.696z"/>
	<path d="M562.684,1548.135c16.757-6.621,36.43-4.22,38.362,13.621c2.486,21.062-8.344,46.315,5.623,44.036
		c3.098-0.48,4.15-3.881,6.019-5.943c19.393-24.454,86.425-68.934,98.014,14.488c0.882,6.277,3.019,18.169,9.706,19.69
		c12.505,3.569,0.966-19.4,32.991-37.47c22.311-12.37,49.24-13.305,64.879,6.263c9.176,11.247,13.772,25.288,21.365,37.529
		c2.761,4.63,11.558,1.995,11.137-3.477c0.11-15.766,0.402-38.521,34.818-50.282c60.378-19.636,78.863,32.051,81.522,34.035
		c3.561,2.82,10.144,0.85,10.514-4.032c0.764-17.126-3.419-35.931,13.907-50.383c16.776-13.708,46.82-23.497,68.558-9.967
		c7.214,4.369,13.41,10.161,19.859,15.557c14.373,11.897,18.117,6.569,31.897,25.07c-0.547,0.219-1.65,0.665-2.197,0.884
		c2.012,0.404,4.032,0.917,6.027,1.532c-1.206,6.01,2.051,7.068-16.416,16.609c-98.236,46.245-245.696,74.276-368.012,54.626
		c-109.698-18.455-111.534-28.547-175.141-47.125c-11.622-3.438-32.175-10.425-38.623-23.1
		C517.533,1600.258,553.493,1558.124,562.684,1548.135 M997.427,1587.044c-2.248,8.023-0.362,17.106,5.017,23.504
		c13.374,4.668,2.248,0.666,23.916-6.844c12.08-4.318,24.808-6.507,37.579-7.383c14.74-0.444-4.164-30.185-26.256-34.936
		C1020.325,1557.858,1001.973,1570.199,997.427,1587.044 M557.886,1564.551c-14.747,6.623-27.457,25.183-19.985,34.212
		c5.665,0.951,11.55,0.564,17.072,2.391c8.216,2.298,14.227,8.78,21.685,12.569c10.187,5.525,13.505-22.783,12.097-32.335
		C586.663,1566.521,573.27,1557.674,557.886,1564.551 M665.101,1582.54c-46.329,11.172-34.918,41.232-25.701,35.702
		c13.499-7.728,52.908,13.829,57.101,12.333C709.46,1626.255,698.989,1573.108,665.101,1582.54 M895.541,1595.344
		c-13.59,4.582-26.407,22.303-21.71,36.426c-4.288,7.673,1.024,12.011,4.647,11.289c3.448-1.169,28.685-16.539,59.82-12.215
		c3.325,0.488,6.768-2.365,6.81-5.741C945.523,1618.334,925.087,1584.579,895.541,1595.344 M749.662,1628.95
		c-2.121,2.669-2.18,6.827,0.345,9.277c3.53,4.183,18.643-0.68,34.237,0.977c15.514,1.991,34.123,9.668,32.722-2.416
		c-0.396-16.341-17.856-35.921-34.279-35.921C767.619,1601.298,750.729,1613.58,749.662,1628.95z"/>
	<path d="M721.68,1547.478c10.068,1.524,19.673,5.135,29.767,6.583c-7.543,4.024-16.012,7.122-21.694,13.823
		C727.219,1561.023,724.399,1554.263,721.68,1547.478z"/>
	<path d="M859.015,1551.393c-2.678,3.141-15.338,17.383-16.407,20.431c-5.851-6.373-12.956-11.499-20.566-15.548
		C848.894,1555.518,846.408,1551.907,859.015,1551.393z"/>
	<path d="M1052.104,1584.712c-21.316,2.619-38.639,9.627-45.391,14.185C1005.518,1574.974,1034.092,1560.813,1052.104,1584.712z"/>
	<path d="M569.604,1572.708c10.369,1.341,7.425,17.856,5.876,26.24c-9.398-6.769-14.178-10.015-29.22-11.264
		C551.836,1578.959,558.925,1571.464,569.604,1572.708z"/>
	<path d="M689.295,1615.346c-14.303-6.339-29.716-10.405-45.416-10.607C651.558,1596.65,685.41,1576.635,689.295,1615.346z"/>
	<path d="M928.288,1617.628c-15.683-0.151-31.324,3.275-45.644,9.614C884.797,1608.286,909.681,1592.734,928.288,1617.628z"/>
	<path d="M804.119,1631.029c-23.238-4.554-15.064-5.478-44.213-3.544C773.31,1602.776,795.874,1608.69,804.119,1631.029z"/>
</g>
</svg>
