<svg width="32" height="33" viewBox="0 0 32 33" fill="none" xmlns="http://www.w3.org/2000/svg">
<g clip-path="url(#clip0_2_448)">
<path d="M5.6875 0.58374H26.325C29.4125 0.58374 32.0125 3.07124 32.0125 6.27124V26.1087C32.0125 29.1962 29.525 31.7962 26.325 31.7962H5.6875C2.5875 31.7837 0 29.2962 0 26.1087V6.25874C0 3.07124 2.4875 0.58374 5.6875 0.58374Z" fill="#B30B00"/>
<path d="M25.525 18.6212C24.025 17.0212 19.9375 17.7212 18.95 17.8212C17.55 16.4212 16.5625 14.8337 16.1625 14.2337C16.6625 12.7337 17.0625 11.0462 17.0625 9.44624C17.0625 7.94624 16.4625 6.45874 14.875 6.45874C14.275 6.45874 13.775 6.75874 13.475 7.25874C12.775 8.45874 13.075 10.8462 14.175 13.3337C13.575 15.1337 12.575 17.8212 11.3875 19.9087C9.7875 20.5087 6.3 22.0962 6 23.8962C5.9 24.3962 6.1 24.9962 6.5 25.2962C6.9 25.6962 7.4 25.7962 7.9 25.7962C9.9875 25.7962 12.0875 22.9087 13.5875 20.3087C14.7875 19.9087 16.675 19.3087 18.575 19.0087C20.7625 21.0087 22.7625 21.2962 23.7625 21.2962C25.1625 21.2962 25.6625 20.6962 25.85 20.1962C26.1125 19.7212 25.925 19.0212 25.525 18.6212ZM24.125 19.6212C24.025 20.0212 23.525 20.4212 22.625 20.2212C21.525 19.9212 20.5375 19.4212 19.7375 18.7212C20.4375 18.6212 22.125 18.4212 23.325 18.6212C23.725 18.7212 24.225 19.0212 24.125 19.6212ZM14.45 7.65874C14.55 7.45874 14.75 7.35874 14.95 7.35874C15.45 7.35874 15.55 7.95874 15.55 8.45874C15.45 9.65874 15.25 10.9462 14.85 12.0462C14.05 9.85874 14.15 8.25874 14.45 7.65874ZM14.35 18.9212C14.85 18.0212 15.45 16.3337 15.65 15.7337C16.15 16.6337 17.05 17.6337 17.45 18.1212C17.55 18.0337 15.75 18.4212 14.35 18.9212ZM10.9625 21.2212C9.575 23.4087 8.275 24.8087 7.475 24.8087C7.375 24.8087 7.175 24.8087 7.075 24.7087C6.975 24.5087 6.875 24.3087 6.975 24.1087C7.075 23.3087 8.675 22.2087 10.9625 21.2212Z" fill="white"/>
</g>
<defs>
<clipPath id="clip0_2_448">
<rect width="32" height="32" fill="white" transform="translate(0 0.183777)"/>
</clipPath>
</defs>
</svg>
