<svg width="32" height="32" viewBox="0 0 32 32" fill="none" xmlns="http://www.w3.org/2000/svg">
<g clip-path="url(#clip0_2_12)">
<path d="M26.3333 0.392456H5.66667C2.53705 0.392456 0 2.92951 0 6.05912V25.9258C0 29.0554 2.53705 31.5925 5.66667 31.5925H26.3333C29.4629 31.5925 32 29.0554 32 25.9258V6.05912C32 2.92951 29.4629 0.392456 26.3333 0.392456Z" fill="#000B1D"/>
<path d="M17.6392 13.4573C16.8921 15.9613 16.2634 18.3751 15.5163 20.7376C15.0922 22.0704 14.6278 23.3426 14.0423 24.1503C13.396 25.0589 12.1844 25.9273 10.7306 25.9273C9.70068 25.9273 8.69102 25.4426 8.69102 24.3724C8.69102 23.706 9.37756 23.0801 9.92281 23.0801C10.0379 23.0755 10.1519 23.1034 10.2518 23.1605C10.3518 23.2177 10.4337 23.3017 10.4882 23.4032C10.993 24.3118 11.4777 24.8368 11.6998 24.8368C11.922 24.8368 12.1037 24.534 12.4671 23.2215L15.1175 13.459L13.2106 13.4569C13.0692 13.0328 13.2704 12.525 13.5127 12.424H15.4109C15.7743 11.2528 16.2029 10.0556 16.8087 8.98534C17.7173 7.34972 19.1712 6.05737 21.1703 6.05737C22.6848 6.05737 23.3107 6.78433 23.3107 7.71326C23.2906 8.70264 22.4223 9.20747 22.0184 9.20747C21.6954 9.20747 21.5338 8.96519 21.4328 8.62192C21.0896 7.32957 20.6453 6.94589 20.3827 6.94589C20.1203 6.94589 19.7164 7.43044 19.2722 8.44009C18.6866 9.7123 18.2926 11.098 17.9292 12.4307L20.2385 12.4276C20.3798 12.7103 20.265 13.2955 19.9218 13.4571L17.6392 13.4573Z" fill="white"/>
</g>
<defs>
<clipPath id="clip0_2_12">
<rect width="32" height="31.2" fill="white" transform="translate(0 0.392456)"/>
</clipPath>
</defs>
</svg>
