<svg width="32" height="32" viewBox="0 0 32 32" fill="none" xmlns="http://www.w3.org/2000/svg">
<g clip-path="url(#clip0_2_143)">
<path d="M30.6667 2.12582H1.33333V30.6592H30.6667V2.12582Z" fill="#261A00"/>
<path fill-rule="evenodd" clip-rule="evenodd" d="M0 0.79248V31.9925H32V0.79248H0ZM1.33333 2.12581H30.6667V30.6591H1.33333V2.12581Z" fill="#FAAB18"/>
<path fill-rule="evenodd" clip-rule="evenodd" d="M7.06667 22.6058C7.06667 22.7392 7.02667 22.7925 6.92001 22.7925H4.81334C4.70667 22.7925 4.66667 22.7525 4.66667 22.6192V8.67248C4.66667 8.56582 4.70667 8.52582 4.81334 8.52582H11.9733C12.1067 8.52582 12.12 8.56582 12.1467 8.67248L12.36 10.4858C12.3867 10.6192 12.32 10.6592 12.1867 10.6592H7.06667V14.6592H11.76C11.8667 14.6592 11.8667 14.6858 11.8667 14.8058V16.6325C11.8667 16.7658 11.8267 16.7792 11.72 16.7792H7.06667V22.6058ZM23.6267 12.0592C25.2 12.0592 27.2 12.7658 27.2 15.8992V22.6058C27.2 22.7392 27.16 22.7792 27.0533 22.7792H25.0933C24.9867 22.7792 24.9467 22.7125 24.9467 22.6058V16.0458C24.9467 14.7792 24.4667 14.0858 23.16 14.0858C22.52 14.0858 22 14.2192 21.5467 14.3925C21.68 14.7792 21.7333 15.3125 21.7333 15.8725V22.6058C21.7333 22.7392 21.6933 22.7792 21.5867 22.7792H19.64C19.5067 22.7792 19.4667 22.7125 19.4667 22.6058V16.0458C19.4667 14.7792 18.9333 14.0858 17.6667 14.0858C17.08 14.0858 16.6933 14.2192 16.2667 14.3658V22.6192C16.2667 22.7125 16.24 22.7658 16.1333 22.7658H14.1467C14.04 22.7658 14 22.7258 14 22.6192V14.4058C14 14.2725 14 13.8192 13.9333 13.0992C13.9333 12.9925 13.9733 12.9925 14.0667 12.9525C15.12 12.5392 16.6 12.0458 18.0667 12.0458C19.0267 12.0458 19.8667 12.2325 20.56 12.7525C21.4133 12.4058 22.36 12.0592 23.6267 12.0592Z" fill="#FAAB18"/>
</g>
<defs>
<clipPath id="clip0_2_143">
<rect width="32" height="31.2" fill="white" transform="translate(0 0.79248)"/>
</clipPath>
</defs>
</svg>
