<svg width="32" height="32" viewBox="0 0 32 32" fill="none" xmlns="http://www.w3.org/2000/svg">
<g clip-path="url(#clip0_2_395)">
<path d="M26.3333 0.392456H5.66667C2.53705 0.392456 0 2.92951 0 6.05912V25.9258C0 29.0554 2.53705 31.5925 5.66667 31.5925H26.3333C29.4629 31.5925 32 29.0554 32 25.9258V6.05912C32 2.92951 29.4629 0.392456 26.3333 0.392456Z" fill="#001E36"/>
<path d="M16.8053 22.4436H8.34747C8.2043 22.4436 8.13275 22.3649 8.13282 22.2074V8.57608C8.12907 8.54984 8.13148 8.52308 8.13987 8.49793C8.14826 8.47277 8.16238 8.44992 8.18113 8.43118C8.19988 8.41243 8.22274 8.39831 8.24789 8.38992C8.27304 8.38154 8.2998 8.37913 8.32605 8.38288H10.945C10.9654 8.38001 10.9862 8.38191 11.0057 8.38845C11.0253 8.39499 11.043 8.40598 11.0576 8.42055C11.0722 8.43512 11.0832 8.45288 11.0897 8.47243C11.0962 8.49197 11.0981 8.51277 11.0953 8.53318V19.7388H17.2562C17.385 19.7388 17.4351 19.8032 17.4064 19.932L17.0201 22.2504C17.0191 22.282 17.0109 22.313 16.996 22.3409C16.9811 22.3689 16.96 22.393 16.9342 22.4114C16.8944 22.4321 16.8502 22.4431 16.8053 22.4436Z" fill="#31A8FF"/>
<path d="M18.9304 11.7747H21.2702C21.3338 11.7752 21.3954 11.7965 21.4458 11.8352C21.4961 11.874 21.5325 11.9281 21.5493 11.9893C21.6003 12.0834 21.6366 12.1847 21.6566 12.2899C21.6866 12.428 21.7081 12.5678 21.721 12.7085C21.7352 12.8587 21.7423 13.0197 21.7425 13.1914C22.1438 12.7242 22.6277 12.3349 23.17 12.043C23.7793 11.7136 24.4633 11.5472 25.1557 11.56C25.182 11.5563 25.2087 11.5587 25.2339 11.5671C25.259 11.5754 25.2819 11.5896 25.3006 11.6083C25.3194 11.6271 25.3335 11.6499 25.3419 11.6751C25.3502 11.7002 25.3527 11.727 25.3489 11.7532V14.3507C25.3489 14.451 25.2773 14.5011 25.1342 14.5009C24.2695 14.4474 23.4046 14.602 22.6119 14.9518C22.3425 15.0683 22.0983 15.2359 21.8928 15.4455V22.2504C21.8928 22.3792 21.8355 22.4436 21.721 22.4436H19.1236C19.0944 22.4478 19.0647 22.4451 19.0367 22.4358C19.0088 22.4265 18.9834 22.4108 18.9625 22.39C18.9417 22.3691 18.926 22.3437 18.9167 22.3158C18.9074 22.2878 18.9047 22.2581 18.9089 22.2289V14.8444C18.9089 14.5298 18.9053 14.197 18.8982 13.8462C18.8908 13.4957 18.8801 13.1486 18.8659 12.8051C18.8565 12.5101 18.8278 12.2161 18.7801 11.9249C18.7748 11.9042 18.7749 11.8823 18.7806 11.8616C18.7862 11.8409 18.7972 11.822 18.8123 11.8069C18.8275 11.7917 18.8464 11.7807 18.8671 11.7751C18.8878 11.7694 18.9096 11.7693 18.9304 11.7747H18.9304Z" fill="#31A8FF"/>
</g>
<defs>
<clipPath id="clip0_2_395">
<rect width="32" height="31.2" fill="white" transform="translate(0 0.392456)"/>
</clipPath>
</defs>
</svg>
